<svg xmlns="http://www.w3.org/2000/svg" xmlns:v="https://svgstorm.com"
viewBox = "0 0 1391 785"
width="100%"
height="100%">
<g fill="None" fill-opacity="0.0" stroke="#EEEEEE" stroke-opacity="1.00" stroke-width="0.3"><path d="
M 0.00 785.00 
L 1391.00 785.00
L 1391.00 0.00
L 0.00 0.00
L 0.00 785.00
M 1176.00 133.00 
C 1169.49 140.62 1162.19 147.71 1154.00 153.00
C 1148.28 156.69 1139.58 159.86 1138.00 167.00
C 1159.33 164.78 1178.77 155.64 1200.00 153.00
C 1202.02 164.03 1189.77 171.64 1182.75 179.75 C 1175.74 187.86 1166.27 194.55 1158.25 201.25 C 1150.24 207.96 1139.02 214.10 1135.00 224.00
C 1118.24 228.23 1101.22 219.87 1085.00 222.00
C 1102.18 259.19 1113.44 298.37 1116.00 340.00
C 1116.38 343.13 1117.00 347.21 1117.00 351.00
C 1117.00 393.83 1113.32 444.90 1101.22 483.22 C 1089.12 521.55 1076.71 551.12 1052.25 582.25 C 1027.79 613.37 998.94 633.44 960.00 638.00 C 921.06 642.56 884.55 619.61 856.00 595.00
C 849.97 604.28 845.90 612.74 840.70 622.70 C 835.49 632.65 831.41 641.22 825.08 651.08 C 818.75 660.94 811.30 642.73 806.75 635.25 C 802.19 627.78 795.42 615.70 791.69 607.31 C 787.97 598.91 776.36 586.05 781.77 576.77 C 787.19 567.49 794.42 560.18 800.75 551.75 C 807.09 543.32 813.15 534.26 821.00 528.00
C 842.23 561.92 868.39 598.59 906.00 616.00
C 910.17 615.12 896.37 601.78 894.00 599.00
C 843.58 540.00 829.91 454.08 835.99 376.99 C 842.07 299.90 859.55 231.42 916.75 174.75 C 973.96 118.08 1073.96 150.28 1141.00 116.00
C 1113.73 116.88 1085.18 125.01 1056.00 123.00
C 1050.96 123.49 1044.73 124.00 1039.00 124.00
C 1027.00 124.00 1015.00 124.00 1003.00 124.00
C 999.92 124.30 995.75 125.00 992.00 125.00
C 914.54 125.00 854.05 185.46 837.00 258.00
C 825.41 244.07 823.50 221.27 814.23 204.77 C 804.96 188.27 796.94 172.33 784.00 158.00
C 780.08 154.08 775.87 149.87 772.00 146.00
C 748.44 125.87 719.46 114.00 688.00 114.00
C 681.00 114.00 674.00 114.00 667.00 114.00
C 663.06 114.00 658.92 113.62 655.00 114.00
C 653.22 114.17 650.45 115.01 648.00 115.00
C 643.23 115.90 638.62 117.00 633.00 117.00
C 628.14 117.00 623.76 117.43 619.00 118.00
C 618.80 118.02 618.30 118.78 618.00 119.00
C 614.75 121.39 606.32 120.74 602.00 121.00
C 577.45 122.47 555.24 130.06 530.00 130.00 C 504.76 129.94 479.73 125.50 455.00 123.00
C 469.93 139.99 493.76 147.00 514.00 155.00
C 516.54 155.54 520.03 156.62 522.00 157.00
C 523.54 157.29 525.43 156.99 527.00 157.00
C 537.48 157.07 548.20 158.00 559.00 158.00
C 569.30 158.00 580.31 156.20 590.22 156.22 C 600.14 156.24 586.50 166.73 582.25 171.25 C 578.00 175.77 570.27 182.41 566.08 188.08 C 561.89 193.76 556.09 200.54 551.75 206.75 C 547.40 212.95 542.51 219.95 539.08 227.08 C 535.64 234.20 530.21 240.58 527.23 248.23 C 524.25 255.88 520.25 263.32 517.22 271.22 C 514.20 279.13 511.32 287.05 508.22 295.22 C 505.13 303.40 503.73 312.39 501.01 321.01 C 498.29 329.62 496.52 338.75 495.00 348.00 C 493.48 357.26 490.70 366.21 490.00 376.00 C 489.31 385.80 488.00 396.84 488.00 407.00
C 488.00 418.00 488.00 429.00 488.00 440.00
C 488.00 471.96 495.56 506.79 505.33 535.67 C 515.10 564.55 531.64 585.59 541.00 614.00
C 515.51 598.06 499.54 569.50 488.00 543.00
C 487.31 541.47 486.67 539.69 486.00 538.00
C 483.85 532.57 481.86 526.79 480.00 521.00
C 478.82 517.32 477.90 513.82 477.00 510.00
C 474.88 501.02 472.66 493.27 471.01 483.99 C 469.35 474.71 469.06 464.68 468.00 455.00 C 466.94 445.32 466.83 434.10 467.00 424.00 C 467.17 413.90 466.89 402.69 468.00 393.00 C 469.11 383.31 470.11 373.45 471.00 364.00 C 471.89 354.55 474.37 345.92 475.98 336.98 C 477.58 328.04 480.06 319.56 481.98 310.98 C 483.89 302.39 485.99 293.90 488.93 285.93 C 491.86 277.95 494.31 270.26 497.92 262.92 C 501.54 255.58 503.88 247.74 507.78 240.78 C 511.67 233.81 517.20 224.77 507.77 221.23 C 498.34 217.69 493.95 215.48 484.93 212.07 C 475.91 208.67 471.24 208.41 462.77 202.23 C 454.30 196.05 470.38 190.37 472.75 185.75 C 475.11 181.12 461.44 176.47 457.75 171.25 C 454.07 166.03 446.08 160.70 442.08 154.92 C 438.08 149.14 431.36 143.91 427.25 137.75 C 423.14 131.59 417.90 125.59 414.08 118.92 C 410.26 112.24 406.34 105.06 403.23 97.77 C 400.12 90.48 396.65 81.13 396.00 73.00
C 395.48 70.30 392.97 63.27 398.00 62.00
C 405.71 60.06 412.20 72.48 418.75 76.25 C 425.30 80.02 432.59 87.40 440.69 90.31 C 448.80 93.21 455.93 98.76 465.02 100.98 C 474.12 103.19 483.89 107.42 494.01 107.99 C 504.13 108.57 517.37 109.87 528.00 109.00 C 538.63 108.13 549.60 106.46 560.07 105.07 C 570.55 103.69 580.72 103.01 591.01 101.01 C 601.29 99.01 611.69 98.08 622.00 96.00 C 632.32 93.93 643.28 92.58 654.00 92.00
C 659.11 91.72 664.16 91.43 669.00 91.00
C 675.83 90.40 683.96 90.83 690.00 92.00
C 757.25 96.82 813.78 146.77 833.00 211.00
C 845.89 193.70 854.02 173.40 870.75 156.75 C 887.48 140.11 901.87 127.10 924.23 118.23 C 946.58 109.36 977.36 104.00 1003.00 105.00
C 1019.48 103.41 1037.78 104.00 1055.00 104.00
C 1069.59 104.00 1087.93 103.36 1101.67 101.67 C 1115.41 99.98 1129.97 96.24 1142.02 92.02 C 1154.08 87.81 1163.09 80.25 1172.08 73.08 C 1181.07 65.92 1189.47 53.61 1194.25 45.25 C 1199.04 36.90 1208.33 14.18 1215.32 26.68 C 1222.31 39.18 1214.54 58.01 1212.01 70.01 C 1209.48 82.01 1202.81 93.58 1197.08 104.08 C 1191.35 114.58 1183.79 123.89 1176.00 133.00
M 823.00 395.00 
C 822.55 397.77 822.47 400.26 822.00 403.00
C 821.37 406.67 821.31 410.13 821.00 414.00
C 820.76 417.01 819.48 420.48 819.00 423.00
C 809.60 472.63 797.89 530.87 770.23 573.23 C 742.57 615.59 708.08 655.94 655.00 657.00
C 642.09 660.00 627.50 658.96 613.00 659.00 C 598.50 659.04 582.63 659.00 568.00 659.00
C 492.50 659.00 419.88 678.07 346.00 685.00
C 342.74 685.69 338.89 686.00 335.00 686.00
C 295.77 686.00 251.54 676.04 222.25 650.75 C 192.96 625.46 169.46 601.49 160.00 565.00
C 158.69 561.70 157.44 558.93 157.00 555.00
C 155.72 543.57 154.13 531.99 155.00 520.00
C 129.94 520.72 106.36 527.41 81.00 527.00
C 74.68 527.61 67.30 528.02 61.00 527.00
C 34.36 525.55 6.27 509.92 9.00 480.00 C 11.73 450.08 34.21 439.60 58.07 429.07 C 81.93 418.55 110.20 412.53 136.00 408.00 C 161.81 403.47 192.06 399.14 214.70 386.70 C 237.33 374.26 256.75 363.28 279.23 352.23 C 301.71 341.18 322.99 329.59 344.25 317.25 C 365.50 304.90 385.11 293.01 405.23 279.23 C 425.35 265.45 445.11 250.78 467.00 241.00
C 467.49 244.67 464.03 246.83 463.00 250.00
C 459.79 254.50 455.12 258.48 451.00 262.00
C 385.09 318.32 305.43 352.68 231.00 394.00
C 276.94 394.05 324.07 386.72 371.00 386.00
C 374.08 385.70 378.25 385.00 382.00 385.00
C 386.33 385.00 390.67 385.00 395.00 385.00
C 403.35 384.19 420.13 381.07 428.00 385.00
C 428.80 385.40 430.16 384.68 431.00 385.00
C 433.49 405.12 409.84 399.34 395.00 401.00 C 380.16 402.66 361.65 402.73 345.98 403.98 C 330.30 405.23 311.83 405.63 296.00 407.00 C 280.17 408.37 263.69 409.44 248.00 411.00 C 232.31 412.56 216.45 414.25 201.00 416.00 C 185.54 417.75 168.93 419.50 153.99 421.99 C 139.05 424.49 124.03 426.77 109.78 429.78 C 95.53 432.79 81.88 435.83 68.78 440.78 C 55.68 445.72 45.37 450.53 34.75 459.75 C 24.13 468.97 18.75 483.20 27.31 495.70 C 35.86 508.19 51.55 510.19 66.00 510.00
C 73.00 510.00 80.00 510.00 87.00 510.00
C 90.94 510.00 95.08 510.37 99.00 510.00
C 108.74 509.09 119.34 507.56 129.00 506.00 C 138.66 504.44 148.41 502.72 158.00 501.00 C 167.60 499.29 177.50 497.82 187.00 496.00 C 196.50 494.18 205.42 491.49 215.02 490.02 C 224.62 488.56 233.82 486.34 243.22 484.22 C 252.62 482.10 261.84 481.00 271.02 478.02 C 280.21 475.05 295.50 477.95 286.30 485.30 C 277.10 492.66 271.71 491.76 262.78 495.78 C 253.84 499.79 247.02 500.93 239.92 506.92 C 232.81 512.91 227.33 517.03 225.07 526.07 C 222.82 535.12 228.97 545.57 239.01 545.99 C 249.05 546.41 260.18 544.99 269.22 542.22 C 278.27 539.46 287.53 538.26 296.07 535.07 C 304.62 531.88 312.93 529.35 321.22 526.22 C 329.52 523.10 338.50 520.36 346.22 517.22 C 353.95 514.08 363.14 510.16 370.23 507.23 C 377.31 504.30 388.25 499.34 394.22 497.22 C 400.20 495.11 417.70 487.05 418.97 494.03 C 420.25 501.01 406.34 506.46 400.92 509.92 C 395.50 513.37 385.25 518.15 378.31 521.31 C 371.36 524.46 362.52 528.82 354.78 531.78 C 347.03 534.73 338.00 537.73 329.93 540.93 C 321.85 544.12 312.84 546.52 304.31 549.31 C 295.77 552.10 287.02 555.08 277.98 556.98 C 268.93 558.87 258.42 561.25 249.00 562.00
C 243.93 562.98 238.02 563.24 233.00 562.00
C 220.50 558.90 210.30 549.87 211.00 536.00 C 211.70 522.12 222.43 515.51 227.00 504.00
C 215.46 504.87 204.25 507.98 193.00 510.00 C 181.75 512.02 167.57 513.01 169.00 526.00 C 170.43 538.99 170.61 550.26 174.93 561.07 C 179.25 571.89 182.83 578.62 188.31 587.69 C 193.78 596.77 199.23 603.40 205.92 611.08 C 212.61 618.76 218.50 624.45 226.08 630.92 C 233.66 637.38 241.56 642.66 250.25 647.75 C 258.93 652.85 267.24 657.24 277.23 660.77 C 287.22 664.30 300.92 666.61 312.00 667.00
C 325.44 667.00 338.90 667.04 352.00 666.00
C 398.21 662.33 442.74 650.76 489.00 648.00
C 494.55 647.21 500.80 646.58 507.00 646.00
C 522.84 644.51 538.75 642.00 555.00 642.00
C 558.07 641.70 562.25 641.00 566.00 641.00
C 579.49 641.00 592.84 640.35 606.00 639.00
C 552.58 592.06 532.68 520.02 529.00 451.00
C 528.70 447.92 528.00 443.75 528.00 440.00
C 528.00 398.51 531.88 348.41 542.98 310.98 C 554.07 273.54 566.38 242.60 587.25 211.25 C 608.12 179.90 630.78 159.66 665.08 145.08 C 699.38 130.49 746.50 135.90 773.75 164.25 C 801.01 192.60 813.81 222.02 820.93 261.07 C 828.04 300.13 829.54 354.77 823.00 395.00
M 1288.00 441.00 
C 1291.48 440.10 1294.94 439.39 1299.00 439.00
C 1310.48 437.89 1321.42 435.32 1332.22 431.22 C 1343.02 427.12 1350.11 427.13 1358.75 416.75 C 1367.39 406.38 1355.83 397.45 1344.00 397.00
C 1338.18 396.78 1332.16 395.50 1327.00 395.00
C 1317.33 395.00 1307.67 395.00 1298.00 395.00
C 1296.25 395.17 1293.41 395.95 1291.00 396.00
C 1283.33 396.93 1274.36 397.00 1266.00 397.00
C 1261.00 397.00 1256.00 397.00 1251.00 397.00
C 1242.78 397.00 1234.96 397.70 1227.00 398.00
C 1221.90 398.73 1215.77 399.00 1210.00 399.00
C 1205.11 399.00 1198.75 399.47 1194.00 399.00 C 1189.25 398.53 1181.88 401.05 1179.00 397.00
C 1175.51 392.09 1180.63 388.27 1185.00 387.00
C 1206.49 380.74 1234.25 381.00 1257.00 381.00
C 1260.08 380.70 1264.25 380.00 1268.00 380.00
C 1275.67 380.00 1283.33 380.00 1291.00 380.00
C 1294.40 379.67 1298.92 379.00 1303.00 379.00
C 1323.49 379.00 1344.69 377.47 1362.70 386.31 C 1380.70 395.14 1379.26 417.10 1365.25 429.25 C 1351.23 441.40 1337.35 445.87 1319.33 450.33 C 1301.31 454.79 1278.56 457.84 1259.00 458.00
C 1259.35 466.32 1265.94 476.46 1261.69 484.69 C 1257.45 492.93 1252.39 496.16 1244.77 500.77 C 1237.15 505.38 1229.94 507.47 1220.98 509.98 C 1212.01 512.48 1202.68 512.43 1192.98 514.98 C 1183.27 517.52 1171.96 513.63 1161.78 515.22 C 1151.60 516.81 1142.19 506.70 1154.03 504.03 C 1165.86 501.35 1172.62 502.15 1183.07 500.07 C 1193.52 498.00 1202.49 498.02 1212.07 496.07 C 1221.66 494.13 1228.85 491.91 1237.08 488.08 C 1245.31 484.26 1251.31 475.54 1244.75 469.25 C 1238.20 462.96 1225.11 464.08 1218.93 462.07 C 1212.75 460.06 1194.08 458.60 1200.25 452.25 C 1206.42 445.90 1219.71 449.64 1228.07 447.07 C 1236.44 444.50 1249.26 446.13 1258.22 444.22 C 1267.18 442.31 1278.15 443.31 1287.07 441.07 Z"/>
</g>
<g fill="None" fill-opacity="0.0" stroke="#45332A" stroke-opacity="1.00" stroke-width="0.3"><path d="
M 1055.00 104.00 
C 1038.52 105.60 1020.22 105.00 1003.00 105.00
C 977.36 104.00 946.58 109.36 924.23 118.23 C 901.87 127.10 887.48 140.11 870.75 156.75 C 854.02 173.40 845.89 193.70 833.00 211.00
C 813.78 146.77 757.25 96.82 690.00 92.00
C 688.02 91.86 685.98 92.00 684.00 92.00
C 683.21 92.14 681.45 93.87 680.00 93.00
C 681.92 99.05 685.16 104.63 686.00 111.00
C 677.10 112.00 682.26 94.15 672.97 94.03 C 663.68 93.91 666.36 108.16 670.00 113.00
C 676.02 112.48 682.76 113.49 688.00 114.00
C 719.46 114.00 748.44 125.87 772.00 146.00
C 776.29 149.66 780.38 153.76 784.00 158.00
C 796.94 172.33 804.96 188.27 814.23 204.77 C 823.50 221.27 825.41 244.07 837.00 258.00
C 854.05 185.46 914.54 125.00 992.00 125.00
C 995.08 124.70 999.25 124.00 1003.00 124.00
C 1015.00 124.00 1027.00 124.00 1039.00 124.00
C 1044.04 123.51 1050.28 123.00 1056.00 123.00
C 1085.18 125.01 1113.73 116.88 1141.00 116.00
C 1073.96 150.28 973.96 118.08 916.75 174.75 C 859.55 231.42 842.07 299.90 835.99 376.99 C 829.91 454.08 843.58 540.00 894.00 599.00
C 899.45 604.45 907.08 609.57 909.00 617.00
C 908.00 616.89 906.27 617.47 906.00 616.00
C 868.39 598.59 842.23 561.92 821.00 528.00
C 813.15 534.26 807.09 543.32 800.75 551.75 C 794.42 560.18 787.19 567.49 781.77 576.77 C 776.36 586.05 787.97 598.91 791.69 607.31 C 795.42 615.70 802.19 627.78 806.75 635.25 C 811.30 642.73 818.75 660.94 825.08 651.08 C 831.41 641.22 835.49 632.65 840.70 622.70 C 845.90 612.74 849.97 604.28 856.00 595.00
C 884.55 619.61 921.06 642.56 960.00 638.00 C 998.94 633.44 1027.79 613.37 1052.25 582.25 C 1076.71 551.12 1089.12 521.55 1101.22 483.22 C 1113.32 444.90 1117.00 393.83 1117.00 351.00
C 1116.70 347.94 1116.07 343.72 1116.00 340.00
C 1113.44 298.37 1102.18 259.19 1085.00 222.00
C 1101.22 219.87 1118.24 228.23 1135.00 224.00
C 1139.02 214.10 1150.24 207.96 1158.25 201.25 C 1166.27 194.55 1175.74 187.86 1182.75 179.75 C 1189.77 171.64 1202.02 164.03 1200.00 153.00
C 1178.77 155.64 1159.33 164.78 1138.00 167.00
C 1139.58 159.86 1148.28 156.69 1154.00 153.00
C 1161.38 147.00 1169.07 139.92 1176.00 133.00
C 1183.79 123.89 1191.35 114.58 1197.08 104.08 C 1202.81 93.58 1209.48 82.01 1212.01 70.01 C 1214.54 58.01 1222.31 39.18 1215.32 26.68 C 1208.33 14.18 1199.04 36.90 1194.25 45.25 C 1189.47 53.61 1181.07 65.92 1172.08 73.08 C 1163.09 80.25 1154.08 87.81 1142.02 92.02 C 1129.97 96.24 1115.41 99.98 1101.67 101.67 C 1087.93 103.36 1069.59 104.00 1055.00 104.00
M 1070.00 333.00 
C 1071.87 344.05 1074.10 357.45 1069.00 368.00
C 1064.49 377.32 1041.53 388.84 1050.77 400.23 C 1060.01 411.62 1075.75 417.37 1070.02 433.02 C 1064.29 448.68 1064.54 464.33 1058.68 478.68 C 1052.81 493.03 1049.11 504.70 1040.75 516.75 C 1032.38 528.79 1024.94 537.15 1012.77 544.77 C 1000.60 552.39 980.90 556.66 967.00 552.00 C 953.10 547.34 944.53 538.50 935.23 527.77 C 925.93 517.04 919.61 506.19 914.08 492.92 C 908.54 479.66 903.53 463.43 901.00 449.00
C 910.75 463.89 928.01 476.14 946.07 471.07 C 964.13 466.01 974.47 454.69 981.77 437.77 C 989.07 420.85 989.41 395.28 985.67 377.33 C 981.93 359.38 970.43 345.74 953.00 340.00
C 951.43 339.75 949.59 340.00 948.00 340.00
C 944.02 340.00 939.97 339.78 936.00 340.00
C 918.92 340.93 906.17 356.92 899.00 371.00
C 898.14 332.97 912.91 294.91 930.92 261.92 C 948.93 228.92 993.02 212.17 1024.75 235.25 C 1056.47 258.34 1065.98 296.88 1070.00 333.00
M 948.00 354.00 
C 971.74 359.88 976.77 396.46 973.67 414.67 C 970.57 432.88 952.26 465.36 930.32 457.68 C 908.38 450.00 901.06 417.86 902.99 397.99 C 904.93 378.13 923.01 347.81 948.00 354.00
M 863.00 382.00 
C 857.77 379.07 848.88 380.29 851.78 388.22 C 854.68 396.15 861.44 391.56 865.00 388.00
C 864.70 397.90 852.02 397.93 848.08 388.92 C 844.14 379.91 860.74 370.37 863.00 382.00 Z"/>
</g>
<g fill="None" fill-opacity="0.0" stroke="#97918E" stroke-opacity="1.00" stroke-width="0.3"><path d="
M 396.00 73.00 
C 395.80 70.48 394.99 63.26 398.00 62.00
C 392.97 63.27 395.48 70.30 396.00 73.00 Z"/>
</g>
<g fill="None" fill-opacity="0.0" stroke="#46342C" stroke-opacity="1.00" stroke-width="0.3"><path d="
M 396.00 73.00 
C 396.65 81.13 400.12 90.48 403.23 97.77 C 406.34 105.06 410.26 112.24 414.08 118.92 C 417.90 125.59 423.14 131.59 427.25 137.75 C 431.36 143.91 438.08 149.14 442.08 154.92 C 446.08 160.70 454.07 166.03 457.75 171.25 C 461.44 176.47 475.11 181.12 472.75 185.75 C 470.38 190.37 454.30 196.05 462.77 202.23 C 471.24 208.41 475.91 208.67 484.93 212.07 C 493.95 215.48 498.34 217.69 507.77 221.23 C 517.20 224.77 511.67 233.81 507.78 240.78 C 503.88 247.74 501.54 255.58 497.92 262.92 C 494.31 270.26 491.86 277.95 488.93 285.93 C 485.99 293.90 483.89 302.39 481.98 310.98 C 480.06 319.56 477.58 328.04 475.98 336.98 C 474.37 345.92 471.89 354.55 471.00 364.00 C 470.11 373.45 469.11 383.31 468.00 393.00 C 466.89 402.69 467.17 413.90 467.00 424.00 C 466.83 434.10 466.94 445.32 468.00 455.00 C 469.06 464.68 469.35 474.71 471.01 483.99 C 472.66 493.27 474.88 501.02 477.00 510.00
C 477.89 512.09 480.14 514.24 480.00 517.00
C 488.07 515.27 492.88 519.56 495.32 526.68 C 497.76 533.80 492.69 539.24 488.00 543.00
C 499.54 569.50 515.51 598.06 541.00 614.00
C 531.64 585.59 515.10 564.55 505.33 535.67 C 495.56 506.79 488.00 471.96 488.00 440.00
C 487.00 429.63 487.00 417.30 488.00 407.00
C 488.00 396.84 489.31 385.80 490.00 376.00 C 490.70 366.21 493.48 357.26 495.00 348.00 C 496.52 338.75 498.29 329.62 501.01 321.01 C 503.73 312.39 505.13 303.40 508.22 295.22 C 511.32 287.05 514.20 279.13 517.22 271.22 C 520.25 263.32 524.25 255.88 527.23 248.23 C 530.21 240.58 535.64 234.20 539.08 227.08 C 542.51 219.95 547.40 212.95 551.75 206.75 C 556.09 200.54 561.89 193.76 566.08 188.08 C 570.27 182.41 578.00 175.77 582.25 171.25 C 586.50 166.73 600.14 156.24 590.22 156.22 C 580.31 156.20 569.30 158.00 559.00 158.00
C 552.39 158.64 544.33 159.50 537.00 159.00
C 536.01 166.69 532.09 169.15 524.00 169.00 C 515.91 168.85 517.02 158.95 514.00 155.00
C 493.76 147.00 469.93 139.99 455.00 123.00
C 479.73 125.50 504.76 129.94 530.00 130.00 C 555.24 130.06 577.45 122.47 602.00 121.00
C 603.18 120.79 605.31 120.22 607.00 120.00
C 608.42 118.33 607.89 116.04 608.00 114.00
C 613.92 117.08 614.52 107.95 621.00 110.00
C 622.13 114.48 614.52 113.43 615.00 118.00
C 616.33 118.00 617.67 118.00 619.00 118.00
C 623.76 117.43 628.14 117.00 633.00 117.00
C 633.23 116.95 633.65 116.05 634.00 116.00
C 638.13 113.54 634.62 106.48 638.75 102.75 C 642.89 99.03 648.46 101.77 651.00 97.00
C 660.59 96.29 654.76 114.87 665.00 113.00
C 663.42 106.21 660.68 99.90 659.00 93.00
C 657.43 92.61 654.78 93.94 654.00 92.00
C 643.28 92.58 632.32 93.93 622.00 96.00 C 611.69 98.08 601.29 99.01 591.01 101.01 C 580.72 103.01 570.55 103.69 560.07 105.07 C 549.60 106.46 538.63 108.13 528.00 109.00 C 517.37 109.87 504.13 108.57 494.01 107.99 C 483.89 107.42 474.12 103.19 465.02 100.98 C 455.93 98.76 448.80 93.21 440.69 90.31 C 432.59 87.40 425.30 80.02 418.75 76.25 C 412.20 72.48 405.71 60.06 398.00 62.00
C 394.99 63.26 395.80 70.48 396.00 73.00 Z"/>
</g>
<g fill="None" fill-opacity="0.0" stroke="#584A41" stroke-opacity="1.00" stroke-width="0.3"><path d="
M 654.00 92.00 
C 654.78 93.94 657.43 92.61 659.00 93.00
C 660.68 99.90 663.42 106.21 665.00 113.00
C 654.76 114.87 660.59 96.29 651.00 97.00
C 648.46 101.77 642.89 99.03 638.75 102.75 C 634.62 106.48 638.13 113.54 634.00 116.00
C 637.17 115.54 641.41 115.35 644.00 115.00
C 638.89 113.94 640.30 104.90 647.03 104.03 C 653.75 103.16 652.44 113.04 655.00 114.00
C 658.92 113.62 663.06 114.00 667.00 114.00
C 667.74 113.84 668.74 113.11 670.00 113.00
C 666.36 108.16 663.68 93.91 672.97 94.03 C 682.26 94.15 677.10 112.00 686.00 111.00
C 685.16 104.63 681.92 99.05 680.00 93.00
C 681.45 93.87 683.21 92.14 684.00 92.00
C 679.14 92.00 673.04 91.04 669.00 91.00
C 664.16 91.43 659.11 91.72 654.00 92.00 Z"/>
</g>
<g fill="None" fill-opacity="0.0" stroke="#AEA8A5" stroke-opacity="1.00" stroke-width="0.3"><path d="
M 684.00 92.00 
C 685.98 92.00 688.02 91.86 690.00 92.00
C 683.96 90.83 675.83 90.40 669.00 91.00
C 673.04 91.04 679.14 92.00 684.00 92.00 Z"/>
</g>
<g fill="None" fill-opacity="0.0" stroke="#43322A" stroke-opacity="1.00" stroke-width="0.3"><path d="
M 644.00 115.00 
C 645.27 114.83 646.71 114.99 648.00 115.00
C 650.45 115.01 653.22 114.17 655.00 114.00
C 652.44 113.04 653.75 103.16 647.03 104.03 C 640.30 104.90 638.89 113.94 644.00 115.00 Z"/>
</g>
<g fill="None" fill-opacity="0.0" stroke="#9B918D" stroke-opacity="1.00" stroke-width="0.3"><path d="
M 1003.00 105.00 
C 1020.22 105.00 1038.52 105.60 1055.00 104.00
C 1037.78 104.00 1019.48 103.41 1003.00 105.00 Z"/>
</g>
<g fill="None" fill-opacity="0.0" stroke="#5E5049" stroke-opacity="1.00" stroke-width="0.3"><path d="
M 607.00 120.00 
C 610.47 119.55 614.37 119.52 618.00 119.00
C 618.30 118.78 618.80 118.02 619.00 118.00
C 617.67 118.00 616.33 118.00 615.00 118.00
C 614.52 113.43 622.13 114.48 621.00 110.00
C 614.52 107.95 613.92 117.08 608.00 114.00
C 607.89 116.04 608.42 118.33 607.00 120.00 Z"/>
</g>
<g fill="None" fill-opacity="0.0" stroke="#958D89" stroke-opacity="1.00" stroke-width="0.3"><path d="
M 667.00 114.00 
C 674.00 114.00 681.00 114.00 688.00 114.00
C 682.76 113.49 676.02 112.48 670.00 113.00
C 668.74 113.11 667.74 113.84 667.00 114.00 Z"/>
</g>
<g fill="None" fill-opacity="0.0" stroke="#ADA5A1" stroke-opacity="1.00" stroke-width="0.3"><path d="
M 634.00 116.00 
C 633.65 116.05 633.23 116.95 633.00 117.00
C 638.62 117.00 643.23 115.90 648.00 115.00
C 646.71 114.99 645.27 114.83 644.00 115.00
C 641.41 115.35 637.17 115.54 634.00 116.00 Z"/>
</g>
<g fill="None" fill-opacity="0.0" stroke="#ABA3A0" stroke-opacity="1.00" stroke-width="0.3"><path d="
M 607.00 120.00 
C 605.31 120.22 603.18 120.79 602.00 121.00
C 606.32 120.74 614.75 121.39 618.00 119.00
C 614.37 119.52 610.47 119.55 607.00 120.00 Z"/>
</g>
<g fill="None" fill-opacity="0.0" stroke="#89817A" stroke-opacity="1.00" stroke-width="0.3"><path d="
M 1039.00 124.00 
C 1044.73 124.00 1050.96 123.49 1056.00 123.00
C 1050.28 123.00 1044.04 123.51 1039.00 124.00 Z"/>
</g>
<g fill="None" fill-opacity="0.0" stroke="#938B85" stroke-opacity="1.00" stroke-width="0.3"><path d="
M 992.00 125.00 
C 995.75 125.00 999.92 124.30 1003.00 124.00
C 999.25 124.00 995.08 124.70 992.00 125.00 Z"/>
</g>
<g fill="None" fill-opacity="0.0" stroke="#988F8A" stroke-opacity="1.00" stroke-width="0.3"><path d="
M 1154.00 153.00 
C 1162.19 147.71 1169.49 140.62 1176.00 133.00
C 1169.07 139.92 1161.38 147.00 1154.00 153.00 Z"/>
</g>
<g fill="None" fill-opacity="0.0" stroke="#45342B" stroke-opacity="1.00" stroke-width="0.3"><path d="
M 528.00 440.00 
C 528.30 443.08 529.00 447.25 529.00 451.00
C 532.68 520.02 552.58 592.06 606.00 639.00
C 592.84 640.35 579.49 641.00 566.00 641.00
C 562.92 641.30 558.75 642.00 555.00 642.00
C 538.75 642.00 522.84 644.51 507.00 646.00
C 501.51 647.16 495.06 647.64 489.00 648.00
C 442.74 650.76 398.21 662.33 352.00 666.00
C 339.38 668.13 324.86 668.24 312.00 667.00
C 300.92 666.61 287.22 664.30 277.23 660.77 C 267.24 657.24 258.93 652.85 250.25 647.75 C 241.56 642.66 233.66 637.38 226.08 630.92 C 218.50 624.45 212.61 618.76 205.92 611.08 C 199.23 603.40 193.78 596.77 188.31 587.69 C 182.83 578.62 179.25 571.89 174.93 561.07 C 170.61 550.26 170.43 538.99 169.00 526.00 C 167.57 513.01 181.75 512.02 193.00 510.00 C 204.25 507.98 215.46 504.87 227.00 504.00
C 222.43 515.51 211.70 522.12 211.00 536.00 C 210.30 549.87 220.50 558.90 233.00 562.00
C 237.96 562.61 244.02 562.40 249.00 562.00
C 258.42 561.25 268.93 558.87 277.98 556.98 C 287.02 555.08 295.77 552.10 304.31 549.31 C 312.84 546.52 321.85 544.12 329.93 540.93 C 338.00 537.73 347.03 534.73 354.78 531.78 C 362.52 528.82 371.36 524.46 378.31 521.31 C 385.25 518.15 395.50 513.37 400.92 509.92 C 406.34 506.46 420.25 501.01 418.97 494.03 C 417.70 487.05 400.20 495.11 394.22 497.22 C 388.25 499.34 377.31 504.30 370.23 507.23 C 363.14 510.16 353.95 514.08 346.22 517.22 C 338.50 520.36 329.52 523.10 321.22 526.22 C 312.93 529.35 304.62 531.88 296.07 535.07 C 287.53 538.26 278.27 539.46 269.22 542.22 C 260.18 544.99 249.05 546.41 239.01 545.99 C 228.97 545.57 222.82 535.12 225.07 526.07 C 227.33 517.03 232.81 512.91 239.92 506.92 C 247.02 500.93 253.84 499.79 262.78 495.78 C 271.71 491.76 277.10 492.66 286.30 485.30 C 295.50 477.95 280.21 475.05 271.02 478.02 C 261.84 481.00 252.62 482.10 243.22 484.22 C 233.82 486.34 224.62 488.56 215.02 490.02 C 205.42 491.49 196.50 494.18 187.00 496.00 C 177.50 497.82 167.60 499.29 158.00 501.00 C 148.41 502.72 138.66 504.44 129.00 506.00 C 119.34 507.56 108.74 509.09 99.00 510.00
C 95.43 510.75 91.21 511.00 87.00 511.00
C 79.97 511.00 72.28 510.61 66.00 510.00
C 51.55 510.19 35.86 508.19 27.31 495.70 C 18.75 483.20 24.13 468.97 34.75 459.75 C 45.37 450.53 55.68 445.72 68.78 440.78 C 81.88 435.83 95.53 432.79 109.78 429.78 C 124.03 426.77 139.05 424.49 153.99 421.99 C 168.93 419.50 185.54 417.75 201.00 416.00 C 216.45 414.25 232.31 412.56 248.00 411.00 C 263.69 409.44 280.17 408.37 296.00 407.00 C 311.83 405.63 330.30 405.23 345.98 403.98 C 361.65 402.73 380.16 402.66 395.00 401.00 C 409.84 399.34 433.49 405.12 431.00 385.00
C 430.16 384.68 428.80 385.40 428.00 385.00
C 419.14 382.12 404.40 385.00 395.00 385.00
C 390.67 385.00 386.33 385.00 382.00 385.00
C 378.92 385.30 374.75 386.00 371.00 386.00
C 324.07 386.72 276.94 394.05 231.00 394.00
C 305.43 352.68 385.09 318.32 451.00 262.00
C 454.76 258.24 459.66 253.98 463.00 250.00
C 464.03 246.83 467.49 244.67 467.00 241.00
C 445.11 250.78 425.35 265.45 405.23 279.23 C 385.11 293.01 365.50 304.90 344.25 317.25 C 322.99 329.59 301.71 341.18 279.23 352.23 C 256.75 363.28 237.33 374.26 214.70 386.70 C 192.06 399.14 161.81 403.47 136.00 408.00 C 110.20 412.53 81.93 418.55 58.07 429.07 C 34.21 439.60 11.73 450.08 9.00 480.00 C 6.27 509.92 34.36 525.55 61.00 527.00
C 67.62 527.36 74.37 527.00 81.00 527.00
C 106.36 527.41 129.94 520.72 155.00 520.00
C 154.13 531.99 155.72 543.57 157.00 555.00
C 157.71 557.86 159.15 561.71 160.00 565.00
C 169.46 601.49 192.96 625.46 222.25 650.75 C 251.54 676.04 295.77 686.00 335.00 686.00
C 337.95 685.71 342.46 685.33 346.00 685.00
C 419.88 678.07 492.50 659.00 568.00 659.00
C 596.21 656.27 626.39 657.57 655.00 657.00
C 708.08 655.94 742.57 615.59 770.23 573.23 C 797.89 530.87 809.60 472.63 819.00 423.00
C 818.74 422.07 819.20 420.94 819.00 420.00
C 796.22 423.74 801.05 384.19 822.00 396.00
C 821.32 394.24 823.10 391.97 823.00 395.00
C 829.54 354.77 828.04 300.13 820.93 261.07 C 813.81 222.02 801.01 192.60 773.75 164.25 C 746.50 135.90 699.38 130.49 665.08 145.08 C 630.78 159.66 608.12 179.90 587.25 211.25 C 566.38 242.60 554.07 273.54 542.98 310.98 C 531.88 348.41 528.00 398.51 528.00 440.00
M 777.00 336.00 
C 777.49 341.09 777.72 346.93 777.00 352.00
C 776.59 362.68 774.59 374.52 765.75 381.75 C 756.91 388.99 749.95 397.96 758.00 408.00
C 769.43 412.78 779.80 419.82 775.00 433.00
C 771.34 464.73 759.35 495.68 743.23 523.23 C 727.11 550.78 696.23 569.84 664.99 562.01 C 633.75 554.18 616.15 526.92 606.00 498.00
C 604.54 496.63 603.73 498.14 602.00 498.00
C 599.44 487.38 592.74 478.13 592.00 467.00
C 595.07 466.18 595.05 470.30 597.00 467.00
C 594.87 458.80 592.66 450.60 592.00 442.00
C 600.25 448.08 604.56 465.28 618.00 467.00
C 622.13 465.66 616.05 458.98 622.00 459.00
C 622.73 460.99 622.54 464.14 625.00 465.00
C 626.27 462.59 631.41 462.16 631.00 466.00
C 626.96 467.84 625.16 468.51 630.00 470.00
C 638.87 470.34 645.29 468.47 653.00 465.00
C 656.33 461.54 653.94 456.37 656.75 452.75 C 659.57 449.14 663.24 447.78 667.69 450.31 C 672.15 452.83 673.47 445.47 677.00 444.00
C 682.17 429.59 689.38 418.14 690.00 402.00
C 690.19 397.03 690.10 391.97 690.00 387.00
C 689.51 362.56 677.40 336.51 652.33 329.67 C 627.26 322.83 603.28 340.29 594.00 363.00
C 596.78 325.35 614.02 287.36 634.75 255.75 C 655.49 224.14 701.65 200.77 733.25 228.75 C 764.84 256.73 773.26 296.59 777.00 336.00
M 644.00 344.00 
C 659.71 347.66 672.08 358.99 673.00 376.00
C 674.59 384.41 675.23 393.39 674.00 402.00
C 673.22 422.35 664.62 448.05 641.33 454.33 C 618.04 460.60 599.44 433.90 599.00 412.00
C 598.31 406.27 598.32 399.66 599.00 394.00
C 599.42 373.24 610.66 349.53 632.00 344.00
C 636.03 342.95 640.04 343.08 644.00 344.00
M 794.00 400.00 
C 799.50 406.90 802.18 416.20 804.98 426.02 C 807.77 435.85 788.40 443.92 784.00 433.00
C 790.54 433.34 804.49 435.00 800.00 423.00
C 795.72 426.35 789.07 430.54 783.78 426.22 C 778.48 421.91 776.05 415.29 778.78 408.78 C 781.51 402.26 792.16 406.51 794.00 400.00
M 578.00 510.00 
C 584.30 510.90 595.75 511.04 593.00 500.00
C 588.38 502.59 582.31 507.54 576.78 503.22 C 571.24 498.90 570.01 493.75 571.78 486.78 C 573.55 479.80 583.38 482.80 586.00 478.00
C 593.45 482.23 594.45 493.21 597.93 502.07 C 601.40 510.94 582.29 520.13 578.00 510.00
M 549.00 518.00 
C 547.42 510.27 542.83 503.12 542.00 495.00
C 547.96 491.88 560.43 490.03 551.10 497.10 C 541.77 504.17 561.15 514.71 549.00 518.00 Z"/>
</g>
<g fill="None" fill-opacity="0.0" stroke="#8F8680" stroke-opacity="1.00" stroke-width="0.3"><path d="
M 784.00 158.00 
C 780.38 153.76 776.29 149.66 772.00 146.00
C 775.87 149.87 780.08 154.08 784.00 158.00 Z"/>
</g>
<g fill="None" fill-opacity="0.0" stroke="#5D4D45" stroke-opacity="1.00" stroke-width="0.3"><path d="
M 537.00 159.00 
C 533.88 158.79 531.18 158.30 528.00 158.00
C 529.31 158.52 531.06 159.63 533.00 159.00
C 532.88 168.78 516.86 166.89 519.00 157.00
C 520.00 157.00 521.00 157.00 522.00 157.00
C 520.03 156.62 516.54 155.54 514.00 155.00
C 517.02 158.95 515.91 168.85 524.00 169.00 C 532.09 169.15 536.01 166.69 537.00 159.00 Z"/>
</g>
<g fill="None" fill-opacity="0.0" stroke="#44342C" stroke-opacity="1.00" stroke-width="0.3"><path d="
M 528.00 158.00 
C 527.65 157.86 527.26 157.12 527.00 157.00
C 525.43 156.99 523.54 157.29 522.00 157.00
C 521.00 157.00 520.00 157.00 519.00 157.00
C 516.86 166.89 532.88 168.78 533.00 159.00
C 531.06 159.63 529.31 158.52 528.00 158.00 Z"/>
</g>
<g fill="None" fill-opacity="0.0" stroke="#89807A" stroke-opacity="1.00" stroke-width="0.3"><path d="
M 528.00 158.00 
C 531.18 158.30 533.88 158.79 537.00 159.00
C 544.33 159.50 552.39 158.64 559.00 158.00
C 548.20 158.00 537.48 157.07 527.00 157.00
C 527.26 157.12 527.65 157.86 528.00 158.00 Z"/>
</g>
<g fill="None" fill-opacity="0.0" stroke="#EDEDED" stroke-opacity="1.00" stroke-width="0.3"><path d="
M 690.00 387.00 
C 690.58 391.83 690.68 397.21 690.00 402.00
C 689.38 418.14 682.17 429.59 677.00 444.00
C 676.84 444.44 677.00 445.00 677.00 445.00
C 672.17 452.77 665.00 461.21 656.00 464.00
C 654.93 464.33 654.07 464.52 653.00 465.00
C 645.29 468.47 638.87 470.34 630.00 470.00
C 625.20 469.82 622.02 468.39 618.00 467.00
C 604.56 465.28 600.25 448.08 592.00 442.00
C 592.66 450.60 594.87 458.80 597.00 467.00
C 599.69 477.36 602.45 487.88 606.00 498.00
C 616.15 526.92 633.75 554.18 664.99 562.01 C 696.23 569.84 727.11 550.78 743.23 523.23 C 759.35 495.68 771.34 464.73 775.00 433.00
C 775.15 431.68 774.88 430.32 775.00 429.00
C 774.28 420.77 761.60 416.35 758.00 409.00
C 757.80 408.60 758.00 408.00 758.00 408.00
C 749.95 397.96 756.91 388.99 765.75 381.75 C 774.59 374.52 776.59 362.68 777.00 352.00
C 777.20 346.68 777.00 341.32 777.00 336.00
C 773.26 296.59 764.84 256.73 733.25 228.75 C 701.65 200.77 655.49 224.14 634.75 255.75 C 614.02 287.36 596.78 325.35 594.00 363.00
C 603.28 340.29 627.26 322.83 652.33 329.67 C 677.40 336.51 689.51 362.56 690.00 387.00 Z"/>
</g>
<g fill="None" fill-opacity="0.0" stroke="#EEEDED" stroke-opacity="1.00" stroke-width="0.3"><path d="
M 936.00 340.00 
C 936.21 339.96 936.70 339.22 937.00 339.00
C 941.08 336.00 949.18 338.27 953.00 340.00
C 970.43 345.74 981.93 359.38 985.67 377.33 C 989.41 395.28 989.07 420.85 981.77 437.77 C 974.47 454.69 964.13 466.01 946.07 471.07 C 928.01 476.14 910.75 463.89 901.00 449.00
C 903.53 463.43 908.54 479.66 914.08 492.92 C 919.61 506.19 925.93 517.04 935.23 527.77 C 944.53 538.50 953.10 547.34 967.00 552.00 C 980.90 556.66 1000.60 552.39 1012.77 544.77 C 1024.94 537.15 1032.38 528.79 1040.75 516.75 C 1049.11 504.70 1052.81 493.03 1058.68 478.68 C 1064.54 464.33 1064.29 448.68 1070.02 433.02 C 1075.75 417.37 1060.01 411.62 1050.77 400.23 C 1041.53 388.84 1064.49 377.32 1069.00 368.00
C 1072.64 356.94 1070.44 344.60 1070.00 333.00
C 1065.98 296.88 1056.47 258.34 1024.75 235.25 C 993.02 212.17 948.93 228.92 930.92 261.92 C 912.91 294.91 898.14 332.97 899.00 371.00
C 906.17 356.92 918.92 340.93 936.00 340.00 Z"/>
</g>
<g fill="None" fill-opacity="0.0" stroke="#8D8480" stroke-opacity="1.00" stroke-width="0.3"><path d="
M 451.00 262.00 
C 455.12 258.48 459.79 254.50 463.00 250.00
C 459.66 253.98 454.76 258.24 451.00 262.00 Z"/>
</g>
<g fill="None" fill-opacity="0.0" stroke="#97928E" stroke-opacity="1.00" stroke-width="0.3"><path d="
M 1069.00 368.00 
C 1074.10 357.45 1071.87 344.05 1070.00 333.00
C 1070.44 344.60 1072.64 356.94 1069.00 368.00 Z"/>
</g>
<g fill="None" fill-opacity="0.0" stroke="#978D8A" stroke-opacity="1.00" stroke-width="0.3"><path d="
M 777.00 352.00 
C 777.72 346.93 777.49 341.09 777.00 336.00
C 777.00 341.32 777.20 346.68 777.00 352.00 Z"/>
</g>
<g fill="None" fill-opacity="0.0" stroke="#C6C0BB" stroke-opacity="1.00" stroke-width="0.3"><path d="
M 937.00 339.00 
C 940.80 338.45 944.99 339.68 948.00 340.00
C 949.59 340.00 951.43 339.75 953.00 340.00
C 949.18 338.27 941.08 336.00 937.00 339.00 Z"/>
</g>
<g fill="None" fill-opacity="0.0" stroke="#786E69" stroke-opacity="1.00" stroke-width="0.3"><path d="
M 936.00 340.00 
C 939.97 339.78 944.02 340.00 948.00 340.00
C 944.99 339.68 940.80 338.45 937.00 339.00
C 936.70 339.22 936.21 339.96 936.00 340.00 Z"/>
</g>
<g fill="None" fill-opacity="0.0" stroke="#948E89" stroke-opacity="1.00" stroke-width="0.3"><path d="
M 1117.00 351.00 
C 1117.00 347.21 1116.38 343.13 1116.00 340.00
C 1116.07 343.72 1116.70 347.94 1117.00 351.00 Z"/>
</g>
<g fill="None" fill-opacity="0.0" stroke="#827772" stroke-opacity="1.00" stroke-width="0.3"><path d="
M 632.00 344.00 
C 635.62 343.52 640.37 343.59 644.00 344.00
C 640.04 343.08 636.03 342.95 632.00 344.00 Z"/>
</g>
<g fill="None" fill-opacity="0.0" stroke="#EDECEC" stroke-opacity="1.00" stroke-width="0.3"><path d="
M 599.00 394.00 
C 598.88 399.98 598.88 406.02 599.00 412.00
C 599.44 433.90 618.04 460.60 641.33 454.33 C 664.62 448.05 673.22 422.35 674.00 402.00
C 674.34 393.09 673.47 384.69 673.00 376.00
C 672.08 358.99 659.71 347.66 644.00 344.00
C 640.37 343.59 635.62 343.52 632.00 344.00
C 610.66 349.53 599.42 373.24 599.00 394.00 Z"/>
</g>
<g fill="None" fill-opacity="0.0" stroke="#EDECEC" stroke-opacity="1.00" stroke-width="0.3"><path d="
M 948.00 354.00 
C 923.01 347.81 904.93 378.13 902.99 397.99 C 901.06 417.86 908.38 450.00 930.32 457.68 C 952.26 465.36 970.57 432.88 973.67 414.67 C 976.77 396.46 971.74 359.88 948.00 354.00 Z"/>
</g>
<g fill="None" fill-opacity="0.0" stroke="#938985" stroke-opacity="1.00" stroke-width="0.3"><path d="
M 674.00 402.00 
C 675.23 393.39 674.59 384.41 673.00 376.00
C 673.47 384.69 674.34 393.09 674.00 402.00 Z"/>
</g>
<g fill="None" fill-opacity="0.0" stroke="#5A4941" stroke-opacity="1.00" stroke-width="0.3"><path d="
M 863.00 382.00 
C 860.74 370.37 844.14 379.91 848.08 388.92 C 852.02 397.93 864.70 397.90 865.00 388.00
C 861.44 391.56 854.68 396.15 851.78 388.22 C 848.88 380.29 857.77 379.07 863.00 382.00 Z"/>
</g>
<g fill="None" fill-opacity="0.0" stroke="#918784" stroke-opacity="1.00" stroke-width="0.3"><path d="
M 1291.00 380.00 
C 1295.08 380.00 1299.66 379.32 1303.00 379.00
C 1298.92 379.00 1294.40 379.67 1291.00 380.00 Z"/>
</g>
<g fill="None" fill-opacity="0.0" stroke="#47362E" stroke-opacity="1.00" stroke-width="0.3"><path d="
M 1291.00 380.00 
C 1283.33 380.00 1275.67 380.00 1268.00 380.00
C 1264.93 380.30 1260.75 381.00 1257.00 381.00
C 1234.25 381.00 1206.49 380.74 1185.00 387.00
C 1181.63 388.26 1176.94 392.56 1179.00 397.00
C 1181.88 401.05 1189.25 398.53 1194.00 399.00 C 1198.75 399.47 1205.11 399.00 1210.00 399.00
C 1215.02 398.51 1221.33 398.22 1227.00 398.00
C 1234.96 397.70 1242.78 397.00 1251.00 397.00
C 1254.73 396.64 1259.59 396.00 1264.00 396.00
C 1267.08 395.70 1271.25 395.00 1275.00 395.00
C 1282.67 395.00 1290.33 395.00 1298.00 395.00
C 1307.67 395.00 1317.33 395.00 1327.00 395.00
C 1333.19 395.00 1338.65 396.10 1344.00 397.00
C 1355.83 397.45 1367.39 406.38 1358.75 416.75 C 1350.11 427.13 1343.02 427.12 1332.22 431.22 C 1321.42 435.32 1310.48 437.89 1299.00 439.00
C 1295.74 439.62 1291.74 440.43 1288.00 441.00
C 1278.15 443.31 1267.18 442.31 1258.22 444.22 C 1249.26 446.13 1236.44 444.50 1228.07 447.07 C 1219.71 449.64 1206.42 445.90 1200.25 452.25 C 1194.08 458.60 1212.75 460.06 1218.93 462.07 C 1225.11 464.08 1238.20 462.96 1244.75 469.25 C 1251.31 475.54 1245.31 484.26 1237.08 488.08 C 1228.85 491.91 1221.66 494.13 1212.07 496.07 C 1202.49 498.02 1193.52 498.00 1183.07 500.07 C 1172.62 502.15 1165.86 501.35 1154.03 504.03 C 1142.19 506.70 1151.60 516.81 1161.78 515.22 C 1171.96 513.63 1183.27 517.52 1192.98 514.98 C 1202.68 512.43 1212.01 512.48 1220.98 509.98 C 1229.94 507.47 1237.15 505.38 1244.77 500.77 C 1252.39 496.16 1257.45 492.93 1261.69 484.69 C 1265.94 476.46 1259.35 466.32 1259.00 458.00
C 1278.56 457.84 1301.31 454.79 1319.33 450.33 C 1337.35 445.87 1351.23 441.40 1365.25 429.25 C 1379.26 417.10 1380.70 395.14 1362.70 386.31 C 1344.69 377.47 1323.49 379.00 1303.00 379.00
C 1299.66 379.32 1295.08 380.00 1291.00 380.00 Z"/>
</g>
<g fill="None" fill-opacity="0.0" stroke="#9D9390" stroke-opacity="1.00" stroke-width="0.3"><path d="
M 1257.00 381.00 
C 1260.75 381.00 1264.93 380.30 1268.00 380.00
C 1264.25 380.00 1260.08 380.70 1257.00 381.00 Z"/>
</g>
<g fill="None" fill-opacity="0.0" stroke="#9B8F85" stroke-opacity="1.00" stroke-width="0.3"><path d="
M 395.00 385.00 
C 404.40 385.00 419.14 382.12 428.00 385.00
C 420.13 381.07 403.35 384.19 395.00 385.00 Z"/>
</g>
<g fill="None" fill-opacity="0.0" stroke="#948985" stroke-opacity="1.00" stroke-width="0.3"><path d="
M 371.00 386.00 
C 374.75 386.00 378.92 385.30 382.00 385.00
C 378.25 385.00 374.08 385.70 371.00 386.00 Z"/>
</g>
<g fill="None" fill-opacity="0.0" stroke="#948C86" stroke-opacity="1.00" stroke-width="0.3"><path d="
M 690.00 402.00 
C 690.68 397.21 690.58 391.83 690.00 387.00
C 690.10 391.97 690.19 397.03 690.00 402.00 Z"/>
</g>
<g fill="None" fill-opacity="0.0" stroke="#8D8581" stroke-opacity="1.00" stroke-width="0.3"><path d="
M 1179.00 397.00 
C 1176.94 392.56 1181.63 388.26 1185.00 387.00
C 1180.63 388.27 1175.51 392.09 1179.00 397.00 Z"/>
</g>
<g fill="None" fill-opacity="0.0" stroke="#5C4C44" stroke-opacity="1.00" stroke-width="0.3"><path d="
M 819.00 423.00 
C 819.48 420.48 820.76 417.01 821.00 414.00
C 817.04 421.66 807.17 411.31 808.00 405.00 C 808.83 398.69 819.97 394.14 822.00 403.00
C 822.47 400.26 822.55 397.77 823.00 395.00
C 823.10 391.97 821.32 394.24 822.00 396.00
C 801.05 384.19 796.22 423.74 819.00 420.00
C 819.20 420.94 818.74 422.07 819.00 423.00 Z"/>
</g>
<g fill="None" fill-opacity="0.0" stroke="#8F867E" stroke-opacity="1.00" stroke-width="0.3"><path d="
M 599.00 412.00 
C 598.88 406.02 598.88 399.98 599.00 394.00
C 598.32 399.66 598.31 406.27 599.00 412.00 Z"/>
</g>
<g fill="None" fill-opacity="0.0" stroke="#5E564F" stroke-opacity="1.00" stroke-width="0.3"><path d="
M 1264.00 396.00 
C 1264.50 396.00 1265.50 396.00 1266.00 396.00
C 1269.00 396.00 1272.00 396.00 1275.00 396.00
C 1274.96 396.00 1275.00 395.00 1275.00 395.00
C 1271.25 395.00 1267.08 395.70 1264.00 396.00 Z"/>
</g>
<g fill="None" fill-opacity="0.0" stroke="#89817A" stroke-opacity="1.00" stroke-width="0.3"><path d="
M 1275.00 396.00 
C 1280.33 396.00 1285.67 396.11 1291.00 396.00
C 1293.41 395.95 1296.25 395.17 1298.00 395.00
C 1290.33 395.00 1282.67 395.00 1275.00 395.00
C 1275.00 395.00 1274.96 396.00 1275.00 396.00 Z"/>
</g>
<g fill="None" fill-opacity="0.0" stroke="#9D9590" stroke-opacity="1.00" stroke-width="0.3"><path d="
M 1344.00 397.00 
C 1338.65 396.10 1333.19 395.00 1327.00 395.00
C 1332.16 395.50 1338.18 396.78 1344.00 397.00 Z"/>
</g>
<g fill="None" fill-opacity="0.0" stroke="#928782" stroke-opacity="1.00" stroke-width="0.3"><path d="
M 1251.00 397.00 
C 1256.00 397.00 1261.00 397.00 1266.00 397.00
C 1265.96 397.00 1266.00 396.00 1266.00 396.00
C 1265.50 396.00 1264.50 396.00 1264.00 396.00
C 1259.59 396.00 1254.73 396.64 1251.00 397.00 Z"/>
</g>
<g fill="None" fill-opacity="0.0" stroke="#C7C1BD" stroke-opacity="1.00" stroke-width="0.3"><path d="
M 1266.00 397.00 
C 1274.36 397.00 1283.33 396.93 1291.00 396.00
C 1285.67 396.11 1280.33 396.00 1275.00 396.00
C 1272.00 396.00 1269.00 396.00 1266.00 396.00
C 1266.00 396.00 1265.96 397.00 1266.00 397.00 Z"/>
</g>
<g fill="None" fill-opacity="0.0" stroke="#43322A" stroke-opacity="1.00" stroke-width="0.3"><path d="
M 821.00 414.00 
C 821.31 410.13 821.37 406.67 822.00 403.00
C 819.97 394.14 808.83 398.69 808.00 405.00 C 807.17 411.31 817.04 421.66 821.00 414.00 Z"/>
</g>
<g fill="None" fill-opacity="0.0" stroke="#A09793" stroke-opacity="1.00" stroke-width="0.3"><path d="
M 1210.00 399.00 
C 1215.77 399.00 1221.90 398.73 1227.00 398.00
C 1221.33 398.22 1215.02 398.51 1210.00 399.00 Z"/>
</g>
<g fill="None" fill-opacity="0.0" stroke="#5A4941" stroke-opacity="1.00" stroke-width="0.3"><path d="
M 794.00 400.00 
C 792.16 406.51 781.51 402.26 778.78 408.78 C 776.05 415.29 778.48 421.91 783.78 426.22 C 789.07 430.54 795.72 426.35 800.00 423.00
C 804.49 435.00 790.54 433.34 784.00 433.00
C 788.40 443.92 807.77 435.85 804.98 426.02 C 802.18 416.20 799.50 406.90 794.00 400.00
M 791.00 408.00 
C 800.16 410.13 796.34 427.17 787.33 423.67 C 778.32 420.17 782.10 405.93 791.00 408.00 Z"/>
</g>
<g fill="None" fill-opacity="0.0" stroke="#988D8A" stroke-opacity="1.00" stroke-width="0.3"><path d="
M 488.00 440.00 
C 488.00 429.00 488.00 418.00 488.00 407.00
C 487.00 417.30 487.00 429.63 488.00 440.00 Z"/>
</g>
<g fill="None" fill-opacity="0.0" stroke="#594D45" stroke-opacity="1.00" stroke-width="0.3"><path d="
M 758.00 409.00 
C 763.61 412.92 775.51 423.41 775.00 429.00
C 774.88 430.32 775.15 431.68 775.00 433.00
C 779.80 419.82 769.43 412.78 758.00 408.00
C 758.00 408.00 757.80 408.60 758.00 409.00 Z"/>
</g>
<g fill="None" fill-opacity="0.0" stroke="#423128" stroke-opacity="1.00" stroke-width="0.3"><path d="
M 791.00 408.00 
C 782.10 405.93 778.32 420.17 787.33 423.67 C 796.34 427.17 800.16 410.13 791.00 408.00 Z"/>
</g>
<g fill="None" fill-opacity="0.0" stroke="#978F8C" stroke-opacity="1.00" stroke-width="0.3"><path d="
M 775.00 429.00 
C 775.51 423.41 763.61 412.92 758.00 409.00
C 761.60 416.35 774.28 420.77 775.00 429.00 Z"/>
</g>
<g fill="None" fill-opacity="0.0" stroke="#A19994" stroke-opacity="1.00" stroke-width="0.3"><path d="
M 1288.00 441.00 
C 1291.74 440.43 1295.74 439.62 1299.00 439.00
C 1294.94 439.39 1291.48 440.10 1288.00 441.00 Z"/>
</g>
<g fill="None" fill-opacity="0.0" stroke="#A49790" stroke-opacity="1.00" stroke-width="0.3"><path d="
M 529.00 451.00 
C 529.00 447.25 528.30 443.08 528.00 440.00
C 528.00 443.75 528.70 447.92 529.00 451.00 Z"/>
</g>
<g fill="None" fill-opacity="0.0" stroke="#63564E" stroke-opacity="1.00" stroke-width="0.3"><path d="
M 653.00 465.00 
C 654.07 464.52 654.93 464.33 656.00 464.00
C 664.19 459.69 669.39 449.94 677.00 445.00
C 677.00 445.00 676.84 444.44 677.00 444.00
C 673.47 445.47 672.15 452.83 667.69 450.31 C 663.24 447.78 659.57 449.14 656.75 452.75 C 653.94 456.37 656.33 461.54 653.00 465.00
M 664.00 451.00 
C 669.58 452.30 663.99 460.11 659.92 459.92 C 655.85 459.72 657.64 449.52 664.00 451.00 Z"/>
</g>
<g fill="None" fill-opacity="0.0" stroke="#BFB9B5" stroke-opacity="1.00" stroke-width="0.3"><path d="
M 656.00 464.00 
C 665.00 461.21 672.17 452.77 677.00 445.00
C 669.39 449.94 664.19 459.69 656.00 464.00 Z"/>
</g>
<g fill="None" fill-opacity="0.0" stroke="#43322B" stroke-opacity="1.00" stroke-width="0.3"><path d="
M 664.00 451.00 
C 657.64 449.52 655.85 459.72 659.92 459.92 C 663.99 460.11 669.58 452.30 664.00 451.00 Z"/>
</g>
<g fill="None" fill-opacity="0.0" stroke="#5D4F47" stroke-opacity="1.00" stroke-width="0.3"><path d="
M 618.00 467.00 
C 622.02 468.39 625.20 469.82 630.00 470.00
C 625.16 468.51 626.96 467.84 631.00 466.00
C 631.41 462.16 626.27 462.59 625.00 465.00
C 622.54 464.14 622.73 460.99 622.00 459.00
C 616.05 458.98 622.13 465.66 618.00 467.00 Z"/>
</g>
<g fill="None" fill-opacity="0.0" stroke="#5F524C" stroke-opacity="1.00" stroke-width="0.3"><path d="
M 606.00 498.00 
C 602.45 487.88 599.69 477.36 597.00 467.00
C 595.05 470.30 595.07 466.18 592.00 467.00
C 592.74 478.13 599.44 487.38 602.00 498.00
C 603.73 498.14 604.54 496.63 606.00 498.00 Z"/>
</g>
<g fill="None" fill-opacity="0.0" stroke="#5B4A42" stroke-opacity="1.00" stroke-width="0.3"><path d="
M 578.00 510.00 
C 582.29 520.13 601.40 510.94 597.93 502.07 C 594.45 493.21 593.45 482.23 586.00 478.00
C 583.38 482.80 573.55 479.80 571.78 486.78 C 570.01 493.75 571.24 498.90 576.78 503.22 C 582.31 507.54 588.38 502.59 593.00 500.00
C 595.75 511.04 584.30 510.90 578.00 510.00
M 583.00 484.00 
C 592.28 485.04 592.10 501.94 582.00 501.00 C 571.89 500.06 572.72 482.85 583.00 484.00 Z"/>
</g>
<g fill="None" fill-opacity="0.0" stroke="#43322A" stroke-opacity="1.00" stroke-width="0.3"><path d="
M 583.00 484.00 
C 572.72 482.85 571.89 500.06 582.00 501.00 C 592.10 501.94 592.28 485.04 583.00 484.00 Z"/>
</g>
<g fill="None" fill-opacity="0.0" stroke="#594940" stroke-opacity="1.00" stroke-width="0.3"><path d="
M 549.00 518.00 
C 561.15 514.71 541.77 504.17 551.10 497.10 C 560.43 490.03 547.96 491.88 542.00 495.00
C 542.83 503.12 547.42 510.27 549.00 518.00 Z"/>
</g>
<g fill="None" fill-opacity="0.0" stroke="#978D8A" stroke-opacity="1.00" stroke-width="0.3"><path d="
M 87.00 511.00 
C 86.96 511.00 87.00 510.00 87.00 510.00
C 80.00 510.00 73.00 510.00 66.00 510.00
C 72.28 510.61 79.97 511.00 87.00 511.00 Z"/>
</g>
<g fill="None" fill-opacity="0.0" stroke="#695E59" stroke-opacity="1.00" stroke-width="0.3"><path d="
M 87.00 511.00 
C 91.21 511.00 95.43 510.75 99.00 510.00
C 95.08 510.37 90.94 510.00 87.00 510.00
C 87.00 510.00 86.96 511.00 87.00 511.00 Z"/>
</g>
<g fill="None" fill-opacity="0.0" stroke="#5D4F47" stroke-opacity="1.00" stroke-width="0.3"><path d="
M 480.00 521.00 
C 482.47 517.06 490.17 522.75 491.30 525.70 C 492.44 528.65 492.60 540.08 486.00 538.00
C 486.67 539.69 487.31 541.47 488.00 543.00
C 492.69 539.24 497.76 533.80 495.32 526.68 C 492.88 519.56 488.07 515.27 480.00 517.00
C 480.14 514.24 477.89 512.09 477.00 510.00
C 477.90 513.82 478.82 517.32 480.00 521.00 Z"/>
</g>
<g fill="None" fill-opacity="0.0" stroke="#483730" stroke-opacity="1.00" stroke-width="0.3"><path d="
M 480.00 521.00 
C 481.86 526.79 483.85 532.57 486.00 538.00
C 492.60 540.08 492.44 528.65 491.30 525.70 C 490.17 522.75 482.47 517.06 480.00 521.00 Z"/>
</g>
<g fill="None" fill-opacity="0.0" stroke="#A0908A" stroke-opacity="1.00" stroke-width="0.3"><path d="
M 81.00 527.00 
C 74.37 527.00 67.62 527.36 61.00 527.00
C 67.30 528.02 74.68 527.61 81.00 527.00 Z"/>
</g>
<g fill="None" fill-opacity="0.0" stroke="#9F9995" stroke-opacity="1.00" stroke-width="0.3"><path d="
M 160.00 565.00 
C 159.15 561.71 157.71 557.86 157.00 555.00
C 157.44 558.93 158.69 561.70 160.00 565.00 Z"/>
</g>
<g fill="None" fill-opacity="0.0" stroke="#9C928E" stroke-opacity="1.00" stroke-width="0.3"><path d="
M 249.00 562.00 
C 244.02 562.40 237.96 562.61 233.00 562.00
C 238.02 563.24 243.93 562.98 249.00 562.00 Z"/>
</g>
<g fill="None" fill-opacity="0.0" stroke="#978D88" stroke-opacity="1.00" stroke-width="0.3"><path d="
M 906.00 616.00 
C 906.27 617.47 908.00 616.89 909.00 617.00
C 907.08 609.57 899.45 604.45 894.00 599.00
C 896.37 601.78 910.17 615.12 906.00 616.00 Z"/>
</g>
<g fill="None" fill-opacity="0.0" stroke="#938984" stroke-opacity="1.00" stroke-width="0.3"><path d="
M 555.00 642.00 
C 558.75 642.00 562.92 641.30 566.00 641.00
C 562.25 641.00 558.07 641.70 555.00 642.00 Z"/>
</g>
<g fill="None" fill-opacity="0.0" stroke="#817872" stroke-opacity="1.00" stroke-width="0.3"><path d="
M 489.00 648.00 
C 495.06 647.64 501.51 647.16 507.00 646.00
C 500.80 646.58 494.55 647.21 489.00 648.00 Z"/>
</g>
<g fill="None" fill-opacity="0.0" stroke="#B6AEAB" stroke-opacity="1.00" stroke-width="0.3"><path d="
M 568.00 659.00 
C 582.63 659.00 598.50 659.04 613.00 659.00 C 627.50 658.96 642.09 660.00 655.00 657.00
C 626.39 657.57 596.21 656.27 568.00 659.00 Z"/>
</g>
<g fill="None" fill-opacity="0.0" stroke="#857A76" stroke-opacity="1.00" stroke-width="0.3"><path d="
M 312.00 667.00 
C 324.86 668.24 339.38 668.13 352.00 666.00
C 338.90 667.04 325.44 667.00 312.00 667.00 Z"/>
</g>
<g fill="None" fill-opacity="0.0" stroke="#A39A97" stroke-opacity="1.00" stroke-width="0.3"><path d="
M 335.00 686.00 
C 338.89 686.00 342.74 685.69 346.00 685.00
C 342.46 685.33 337.95 685.71 335.00 686.00 Z"/>
</g>
<g fill="#EEEEEE" fill-opacity="1.00" stroke="None">
<path d="
M 0.00 785.00 
L 1391.00 785.00
L 1391.00 0.00
L 0.00 0.00
L 0.00 785.00
M 1176.00 133.00 
C 1169.49 140.62 1162.19 147.71 1154.00 153.00
C 1148.28 156.69 1139.58 159.86 1138.00 167.00
C 1159.33 164.78 1178.77 155.64 1200.00 153.00
C 1202.02 164.03 1189.77 171.64 1182.75 179.75 C 1175.74 187.86 1166.27 194.55 1158.25 201.25 C 1150.24 207.96 1139.02 214.10 1135.00 224.00
C 1118.24 228.23 1101.22 219.87 1085.00 222.00
C 1102.18 259.19 1113.44 298.37 1116.00 340.00
C 1116.38 343.13 1117.00 347.21 1117.00 351.00
C 1117.00 393.83 1113.32 444.90 1101.22 483.22 C 1089.12 521.55 1076.71 551.12 1052.25 582.25 C 1027.79 613.37 998.94 633.44 960.00 638.00 C 921.06 642.56 884.55 619.61 856.00 595.00
C 849.97 604.28 845.90 612.74 840.70 622.70 C 835.49 632.65 831.41 641.22 825.08 651.08 C 818.75 660.94 811.30 642.73 806.75 635.25 C 802.19 627.78 795.42 615.70 791.69 607.31 C 787.97 598.91 776.36 586.05 781.77 576.77 C 787.19 567.49 794.42 560.18 800.75 551.75 C 807.09 543.32 813.15 534.26 821.00 528.00
C 842.23 561.92 868.39 598.59 906.00 616.00
C 910.17 615.12 896.37 601.78 894.00 599.00
C 843.58 540.00 829.91 454.08 835.99 376.99 C 842.07 299.90 859.55 231.42 916.75 174.75 C 973.96 118.08 1073.96 150.28 1141.00 116.00
C 1113.73 116.88 1085.18 125.01 1056.00 123.00
C 1050.96 123.49 1044.73 124.00 1039.00 124.00
C 1027.00 124.00 1015.00 124.00 1003.00 124.00
C 999.92 124.30 995.75 125.00 992.00 125.00
C 914.54 125.00 854.05 185.46 837.00 258.00
C 825.41 244.07 823.50 221.27 814.23 204.77 C 804.96 188.27 796.94 172.33 784.00 158.00
C 780.08 154.08 775.87 149.87 772.00 146.00
C 748.44 125.87 719.46 114.00 688.00 114.00
C 681.00 114.00 674.00 114.00 667.00 114.00
C 663.06 114.00 658.92 113.62 655.00 114.00
C 653.22 114.17 650.45 115.01 648.00 115.00
C 643.23 115.90 638.62 117.00 633.00 117.00
C 628.14 117.00 623.76 117.43 619.00 118.00
C 618.80 118.02 618.30 118.78 618.00 119.00
C 614.75 121.39 606.32 120.74 602.00 121.00
C 577.45 122.47 555.24 130.06 530.00 130.00 C 504.76 129.94 479.73 125.50 455.00 123.00
C 469.93 139.99 493.76 147.00 514.00 155.00
C 516.54 155.54 520.03 156.62 522.00 157.00
C 523.54 157.29 525.43 156.99 527.00 157.00
C 537.48 157.07 548.20 158.00 559.00 158.00
C 569.30 158.00 580.31 156.20 590.22 156.22 C 600.14 156.24 586.50 166.73 582.25 171.25 C 578.00 175.77 570.27 182.41 566.08 188.08 C 561.89 193.76 556.09 200.54 551.75 206.75 C 547.40 212.95 542.51 219.95 539.08 227.08 C 535.64 234.20 530.21 240.58 527.23 248.23 C 524.25 255.88 520.25 263.32 517.22 271.22 C 514.20 279.13 511.32 287.05 508.22 295.22 C 505.13 303.40 503.73 312.39 501.01 321.01 C 498.29 329.62 496.52 338.75 495.00 348.00 C 493.48 357.26 490.70 366.21 490.00 376.00 C 489.31 385.80 488.00 396.84 488.00 407.00
C 488.00 418.00 488.00 429.00 488.00 440.00
C 488.00 471.96 495.56 506.79 505.33 535.67 C 515.10 564.55 531.64 585.59 541.00 614.00
C 515.51 598.06 499.54 569.50 488.00 543.00
C 487.31 541.47 486.67 539.69 486.00 538.00
C 483.85 532.57 481.86 526.79 480.00 521.00
C 478.82 517.32 477.90 513.82 477.00 510.00
C 474.88 501.02 472.66 493.27 471.01 483.99 C 469.35 474.71 469.06 464.68 468.00 455.00 C 466.94 445.32 466.83 434.10 467.00 424.00 C 467.17 413.90 466.89 402.69 468.00 393.00 C 469.11 383.31 470.11 373.45 471.00 364.00 C 471.89 354.55 474.37 345.92 475.98 336.98 C 477.58 328.04 480.06 319.56 481.98 310.98 C 483.89 302.39 485.99 293.90 488.93 285.93 C 491.86 277.95 494.31 270.26 497.92 262.92 C 501.54 255.58 503.88 247.74 507.78 240.78 C 511.67 233.81 517.20 224.77 507.77 221.23 C 498.34 217.69 493.95 215.48 484.93 212.07 C 475.91 208.67 471.24 208.41 462.77 202.23 C 454.30 196.05 470.38 190.37 472.75 185.75 C 475.11 181.12 461.44 176.47 457.75 171.25 C 454.07 166.03 446.08 160.70 442.08 154.92 C 438.08 149.14 431.36 143.91 427.25 137.75 C 423.14 131.59 417.90 125.59 414.08 118.92 C 410.26 112.24 406.34 105.06 403.23 97.77 C 400.12 90.48 396.65 81.13 396.00 73.00
C 395.48 70.30 392.97 63.27 398.00 62.00
C 405.71 60.06 412.20 72.48 418.75 76.25 C 425.30 80.02 432.59 87.40 440.69 90.31 C 448.80 93.21 455.93 98.76 465.02 100.98 C 474.12 103.19 483.89 107.42 494.01 107.99 C 504.13 108.57 517.37 109.87 528.00 109.00 C 538.63 108.13 549.60 106.46 560.07 105.07 C 570.55 103.69 580.72 103.01 591.01 101.01 C 601.29 99.01 611.69 98.08 622.00 96.00 C 632.32 93.93 643.28 92.58 654.00 92.00
C 659.11 91.72 664.16 91.43 669.00 91.00
C 675.83 90.40 683.96 90.83 690.00 92.00
C 757.25 96.82 813.78 146.77 833.00 211.00
C 845.89 193.70 854.02 173.40 870.75 156.75 C 887.48 140.11 901.87 127.10 924.23 118.23 C 946.58 109.36 977.36 104.00 1003.00 105.00
C 1019.48 103.41 1037.78 104.00 1055.00 104.00
C 1069.59 104.00 1087.93 103.36 1101.67 101.67 C 1115.41 99.98 1129.97 96.24 1142.02 92.02 C 1154.08 87.81 1163.09 80.25 1172.08 73.08 C 1181.07 65.92 1189.47 53.61 1194.25 45.25 C 1199.04 36.90 1208.33 14.18 1215.32 26.68 C 1222.31 39.18 1214.54 58.01 1212.01 70.01 C 1209.48 82.01 1202.81 93.58 1197.08 104.08 C 1191.35 114.58 1183.79 123.89 1176.00 133.00
M 823.00 395.00 
C 822.55 397.77 822.47 400.26 822.00 403.00
C 821.37 406.67 821.31 410.13 821.00 414.00
C 820.76 417.01 819.48 420.48 819.00 423.00
C 809.60 472.63 797.89 530.87 770.23 573.23 C 742.57 615.59 708.08 655.94 655.00 657.00
C 642.09 660.00 627.50 658.96 613.00 659.00 C 598.50 659.04 582.63 659.00 568.00 659.00
C 492.50 659.00 419.88 678.07 346.00 685.00
C 342.74 685.69 338.89 686.00 335.00 686.00
C 295.77 686.00 251.54 676.04 222.25 650.75 C 192.96 625.46 169.46 601.49 160.00 565.00
C 158.69 561.70 157.44 558.93 157.00 555.00
C 155.72 543.57 154.13 531.99 155.00 520.00
C 129.94 520.72 106.36 527.41 81.00 527.00
C 74.68 527.61 67.30 528.02 61.00 527.00
C 34.36 525.55 6.27 509.92 9.00 480.00 C 11.73 450.08 34.21 439.60 58.07 429.07 C 81.93 418.55 110.20 412.53 136.00 408.00 C 161.81 403.47 192.06 399.14 214.70 386.70 C 237.33 374.26 256.75 363.28 279.23 352.23 C 301.71 341.18 322.99 329.59 344.25 317.25 C 365.50 304.90 385.11 293.01 405.23 279.23 C 425.35 265.45 445.11 250.78 467.00 241.00
C 467.49 244.67 464.03 246.83 463.00 250.00
C 459.79 254.50 455.12 258.48 451.00 262.00
C 385.09 318.32 305.43 352.68 231.00 394.00
C 276.94 394.05 324.07 386.72 371.00 386.00
C 374.08 385.70 378.25 385.00 382.00 385.00
C 386.33 385.00 390.67 385.00 395.00 385.00
C 403.35 384.19 420.13 381.07 428.00 385.00
C 428.80 385.40 430.16 384.68 431.00 385.00
C 433.49 405.12 409.84 399.34 395.00 401.00 C 380.16 402.66 361.65 402.73 345.98 403.98 C 330.30 405.23 311.83 405.63 296.00 407.00 C 280.17 408.37 263.69 409.44 248.00 411.00 C 232.31 412.56 216.45 414.25 201.00 416.00 C 185.54 417.75 168.93 419.50 153.99 421.99 C 139.05 424.49 124.03 426.77 109.78 429.78 C 95.53 432.79 81.88 435.83 68.78 440.78 C 55.68 445.72 45.37 450.53 34.75 459.75 C 24.13 468.97 18.75 483.20 27.31 495.70 C 35.86 508.19 51.55 510.19 66.00 510.00
C 73.00 510.00 80.00 510.00 87.00 510.00
C 90.94 510.00 95.08 510.37 99.00 510.00
C 108.74 509.09 119.34 507.56 129.00 506.00 C 138.66 504.44 148.41 502.72 158.00 501.00 C 167.60 499.29 177.50 497.82 187.00 496.00 C 196.50 494.18 205.42 491.49 215.02 490.02 C 224.62 488.56 233.82 486.34 243.22 484.22 C 252.62 482.10 261.84 481.00 271.02 478.02 C 280.21 475.05 295.50 477.95 286.30 485.30 C 277.10 492.66 271.71 491.76 262.78 495.78 C 253.84 499.79 247.02 500.93 239.92 506.92 C 232.81 512.91 227.33 517.03 225.07 526.07 C 222.82 535.12 228.97 545.57 239.01 545.99 C 249.05 546.41 260.18 544.99 269.22 542.22 C 278.27 539.46 287.53 538.26 296.07 535.07 C 304.62 531.88 312.93 529.35 321.22 526.22 C 329.52 523.10 338.50 520.36 346.22 517.22 C 353.95 514.08 363.14 510.16 370.23 507.23 C 377.31 504.30 388.25 499.34 394.22 497.22 C 400.20 495.11 417.70 487.05 418.97 494.03 C 420.25 501.01 406.34 506.46 400.92 509.92 C 395.50 513.37 385.25 518.15 378.31 521.31 C 371.36 524.46 362.52 528.82 354.78 531.78 C 347.03 534.73 338.00 537.73 329.93 540.93 C 321.85 544.12 312.84 546.52 304.31 549.31 C 295.77 552.10 287.02 555.08 277.98 556.98 C 268.93 558.87 258.42 561.25 249.00 562.00
C 243.93 562.98 238.02 563.24 233.00 562.00
C 220.50 558.90 210.30 549.87 211.00 536.00 C 211.70 522.12 222.43 515.51 227.00 504.00
C 215.46 504.87 204.25 507.98 193.00 510.00 C 181.75 512.02 167.57 513.01 169.00 526.00 C 170.43 538.99 170.61 550.26 174.93 561.07 C 179.25 571.89 182.83 578.62 188.31 587.69 C 193.78 596.77 199.23 603.40 205.92 611.08 C 212.61 618.76 218.50 624.45 226.08 630.92 C 233.66 637.38 241.56 642.66 250.25 647.75 C 258.93 652.85 267.24 657.24 277.23 660.77 C 287.22 664.30 300.92 666.61 312.00 667.00
C 325.44 667.00 338.90 667.04 352.00 666.00
C 398.21 662.33 442.74 650.76 489.00 648.00
C 494.55 647.21 500.80 646.58 507.00 646.00
C 522.84 644.51 538.75 642.00 555.00 642.00
C 558.07 641.70 562.25 641.00 566.00 641.00
C 579.49 641.00 592.84 640.35 606.00 639.00
C 552.58 592.06 532.68 520.02 529.00 451.00
C 528.70 447.92 528.00 443.75 528.00 440.00
C 528.00 398.51 531.88 348.41 542.98 310.98 C 554.07 273.54 566.38 242.60 587.25 211.25 C 608.12 179.90 630.78 159.66 665.08 145.08 C 699.38 130.49 746.50 135.90 773.75 164.25 C 801.01 192.60 813.81 222.02 820.93 261.07 C 828.04 300.13 829.54 354.77 823.00 395.00
M 1288.00 441.00 
C 1291.48 440.10 1294.94 439.39 1299.00 439.00
C 1310.48 437.89 1321.42 435.32 1332.22 431.22 C 1343.02 427.12 1350.11 427.13 1358.75 416.75 C 1367.39 406.38 1355.83 397.45 1344.00 397.00
C 1338.18 396.78 1332.16 395.50 1327.00 395.00
C 1317.33 395.00 1307.67 395.00 1298.00 395.00
C 1296.25 395.17 1293.41 395.95 1291.00 396.00
C 1283.33 396.93 1274.36 397.00 1266.00 397.00
C 1261.00 397.00 1256.00 397.00 1251.00 397.00
C 1242.78 397.00 1234.96 397.70 1227.00 398.00
C 1221.90 398.73 1215.77 399.00 1210.00 399.00
C 1205.11 399.00 1198.75 399.47 1194.00 399.00 C 1189.25 398.53 1181.88 401.05 1179.00 397.00
C 1175.51 392.09 1180.63 388.27 1185.00 387.00
C 1206.49 380.74 1234.25 381.00 1257.00 381.00
C 1260.08 380.70 1264.25 380.00 1268.00 380.00
C 1275.67 380.00 1283.33 380.00 1291.00 380.00
C 1294.40 379.67 1298.92 379.00 1303.00 379.00
C 1323.49 379.00 1344.69 377.47 1362.70 386.31 C 1380.70 395.14 1379.26 417.10 1365.25 429.25 C 1351.23 441.40 1337.35 445.87 1319.33 450.33 C 1301.31 454.79 1278.56 457.84 1259.00 458.00
C 1259.35 466.32 1265.94 476.46 1261.69 484.69 C 1257.45 492.93 1252.39 496.16 1244.77 500.77 C 1237.15 505.38 1229.94 507.47 1220.98 509.98 C 1212.01 512.48 1202.68 512.43 1192.98 514.98 C 1183.27 517.52 1171.96 513.63 1161.78 515.22 C 1151.60 516.81 1142.19 506.70 1154.03 504.03 C 1165.86 501.35 1172.62 502.15 1183.07 500.07 C 1193.52 498.00 1202.49 498.02 1212.07 496.07 C 1221.66 494.13 1228.85 491.91 1237.08 488.08 C 1245.31 484.26 1251.31 475.54 1244.75 469.25 C 1238.20 462.96 1225.11 464.08 1218.93 462.07 C 1212.75 460.06 1194.08 458.60 1200.25 452.25 C 1206.42 445.90 1219.71 449.64 1228.07 447.07 C 1236.44 444.50 1249.26 446.13 1258.22 444.22 C 1267.18 442.31 1278.15 443.31 1287.07 441.07 Z"/>
</g>
<g fill="#45332A" fill-opacity="1.00" stroke="None">
<path d="
M 1055.00 104.00 
C 1038.52 105.60 1020.22 105.00 1003.00 105.00
C 977.36 104.00 946.58 109.36 924.23 118.23 C 901.87 127.10 887.48 140.11 870.75 156.75 C 854.02 173.40 845.89 193.70 833.00 211.00
C 813.78 146.77 757.25 96.82 690.00 92.00
C 688.02 91.86 685.98 92.00 684.00 92.00
C 683.21 92.14 681.45 93.87 680.00 93.00
C 681.92 99.05 685.16 104.63 686.00 111.00
C 677.10 112.00 682.26 94.15 672.97 94.03 C 663.68 93.91 666.36 108.16 670.00 113.00
C 676.02 112.48 682.76 113.49 688.00 114.00
C 719.46 114.00 748.44 125.87 772.00 146.00
C 776.29 149.66 780.38 153.76 784.00 158.00
C 796.94 172.33 804.96 188.27 814.23 204.77 C 823.50 221.27 825.41 244.07 837.00 258.00
C 854.05 185.46 914.54 125.00 992.00 125.00
C 995.08 124.70 999.25 124.00 1003.00 124.00
C 1015.00 124.00 1027.00 124.00 1039.00 124.00
C 1044.04 123.51 1050.28 123.00 1056.00 123.00
C 1085.18 125.01 1113.73 116.88 1141.00 116.00
C 1073.96 150.28 973.96 118.08 916.75 174.75 C 859.55 231.42 842.07 299.90 835.99 376.99 C 829.91 454.08 843.58 540.00 894.00 599.00
C 899.45 604.45 907.08 609.57 909.00 617.00
C 908.00 616.89 906.27 617.47 906.00 616.00
C 868.39 598.59 842.23 561.92 821.00 528.00
C 813.15 534.26 807.09 543.32 800.75 551.75 C 794.42 560.18 787.19 567.49 781.77 576.77 C 776.36 586.05 787.97 598.91 791.69 607.31 C 795.42 615.70 802.19 627.78 806.75 635.25 C 811.30 642.73 818.75 660.94 825.08 651.08 C 831.41 641.22 835.49 632.65 840.70 622.70 C 845.90 612.74 849.97 604.28 856.00 595.00
C 884.55 619.61 921.06 642.56 960.00 638.00 C 998.94 633.44 1027.79 613.37 1052.25 582.25 C 1076.71 551.12 1089.12 521.55 1101.22 483.22 C 1113.32 444.90 1117.00 393.83 1117.00 351.00
C 1116.70 347.94 1116.07 343.72 1116.00 340.00
C 1113.44 298.37 1102.18 259.19 1085.00 222.00
C 1101.22 219.87 1118.24 228.23 1135.00 224.00
C 1139.02 214.10 1150.24 207.96 1158.25 201.25 C 1166.27 194.55 1175.74 187.86 1182.75 179.75 C 1189.77 171.64 1202.02 164.03 1200.00 153.00
C 1178.77 155.64 1159.33 164.78 1138.00 167.00
C 1139.58 159.86 1148.28 156.69 1154.00 153.00
C 1161.38 147.00 1169.07 139.92 1176.00 133.00
C 1183.79 123.89 1191.35 114.58 1197.08 104.08 C 1202.81 93.58 1209.48 82.01 1212.01 70.01 C 1214.54 58.01 1222.31 39.18 1215.32 26.68 C 1208.33 14.18 1199.04 36.90 1194.25 45.25 C 1189.47 53.61 1181.07 65.92 1172.08 73.08 C 1163.09 80.25 1154.08 87.81 1142.02 92.02 C 1129.97 96.24 1115.41 99.98 1101.67 101.67 C 1087.93 103.36 1069.59 104.00 1055.00 104.00
M 1070.00 333.00 
C 1071.87 344.05 1074.10 357.45 1069.00 368.00
C 1064.49 377.32 1041.53 388.84 1050.77 400.23 C 1060.01 411.62 1075.75 417.37 1070.02 433.02 C 1064.29 448.68 1064.54 464.33 1058.68 478.68 C 1052.81 493.03 1049.11 504.70 1040.75 516.75 C 1032.38 528.79 1024.94 537.15 1012.77 544.77 C 1000.60 552.39 980.90 556.66 967.00 552.00 C 953.10 547.34 944.53 538.50 935.23 527.77 C 925.93 517.04 919.61 506.19 914.08 492.92 C 908.54 479.66 903.53 463.43 901.00 449.00
C 910.75 463.89 928.01 476.14 946.07 471.07 C 964.13 466.01 974.47 454.69 981.77 437.77 C 989.07 420.85 989.41 395.28 985.67 377.33 C 981.93 359.38 970.43 345.74 953.00 340.00
C 951.43 339.75 949.59 340.00 948.00 340.00
C 944.02 340.00 939.97 339.78 936.00 340.00
C 918.92 340.93 906.17 356.92 899.00 371.00
C 898.14 332.97 912.91 294.91 930.92 261.92 C 948.93 228.92 993.02 212.17 1024.75 235.25 C 1056.47 258.34 1065.98 296.88 1070.00 333.00
M 948.00 354.00 
C 971.74 359.88 976.77 396.46 973.67 414.67 C 970.57 432.88 952.26 465.36 930.32 457.68 C 908.38 450.00 901.06 417.86 902.99 397.99 C 904.93 378.13 923.01 347.81 948.00 354.00
M 863.00 382.00 
C 857.77 379.07 848.88 380.29 851.78 388.22 C 854.68 396.15 861.44 391.56 865.00 388.00
C 864.70 397.90 852.02 397.93 848.08 388.92 C 844.14 379.91 860.74 370.37 863.00 382.00 Z"/>
</g>
<g fill="#97918E" fill-opacity="1.00" stroke="None">
<path d="
M 396.00 73.00 
C 395.80 70.48 394.99 63.26 398.00 62.00
C 392.97 63.27 395.48 70.30 396.00 73.00 Z"/>
</g>
<g fill="#46342C" fill-opacity="1.00" stroke="None">
<path d="
M 396.00 73.00 
C 396.65 81.13 400.12 90.48 403.23 97.77 C 406.34 105.06 410.26 112.24 414.08 118.92 C 417.90 125.59 423.14 131.59 427.25 137.75 C 431.36 143.91 438.08 149.14 442.08 154.92 C 446.08 160.70 454.07 166.03 457.75 171.25 C 461.44 176.47 475.11 181.12 472.75 185.75 C 470.38 190.37 454.30 196.05 462.77 202.23 C 471.24 208.41 475.91 208.67 484.93 212.07 C 493.95 215.48 498.34 217.69 507.77 221.23 C 517.20 224.77 511.67 233.81 507.78 240.78 C 503.88 247.74 501.54 255.58 497.92 262.92 C 494.31 270.26 491.86 277.95 488.93 285.93 C 485.99 293.90 483.89 302.39 481.98 310.98 C 480.06 319.56 477.58 328.04 475.98 336.98 C 474.37 345.92 471.89 354.55 471.00 364.00 C 470.11 373.45 469.11 383.31 468.00 393.00 C 466.89 402.69 467.17 413.90 467.00 424.00 C 466.83 434.10 466.94 445.32 468.00 455.00 C 469.06 464.68 469.35 474.71 471.01 483.99 C 472.66 493.27 474.88 501.02 477.00 510.00
C 477.89 512.09 480.14 514.24 480.00 517.00
C 488.07 515.27 492.88 519.56 495.32 526.68 C 497.76 533.80 492.69 539.24 488.00 543.00
C 499.54 569.50 515.51 598.06 541.00 614.00
C 531.64 585.59 515.10 564.55 505.33 535.67 C 495.56 506.79 488.00 471.96 488.00 440.00
C 487.00 429.63 487.00 417.30 488.00 407.00
C 488.00 396.84 489.31 385.80 490.00 376.00 C 490.70 366.21 493.48 357.26 495.00 348.00 C 496.52 338.75 498.29 329.62 501.01 321.01 C 503.73 312.39 505.13 303.40 508.22 295.22 C 511.32 287.05 514.20 279.13 517.22 271.22 C 520.25 263.32 524.25 255.88 527.23 248.23 C 530.21 240.58 535.64 234.20 539.08 227.08 C 542.51 219.95 547.40 212.95 551.75 206.75 C 556.09 200.54 561.89 193.76 566.08 188.08 C 570.27 182.41 578.00 175.77 582.25 171.25 C 586.50 166.73 600.14 156.24 590.22 156.22 C 580.31 156.20 569.30 158.00 559.00 158.00
C 552.39 158.64 544.33 159.50 537.00 159.00
C 536.01 166.69 532.09 169.15 524.00 169.00 C 515.91 168.85 517.02 158.95 514.00 155.00
C 493.76 147.00 469.93 139.99 455.00 123.00
C 479.73 125.50 504.76 129.94 530.00 130.00 C 555.24 130.06 577.45 122.47 602.00 121.00
C 603.18 120.79 605.31 120.22 607.00 120.00
C 608.42 118.33 607.89 116.04 608.00 114.00
C 613.92 117.08 614.52 107.95 621.00 110.00
C 622.13 114.48 614.52 113.43 615.00 118.00
C 616.33 118.00 617.67 118.00 619.00 118.00
C 623.76 117.43 628.14 117.00 633.00 117.00
C 633.23 116.95 633.65 116.05 634.00 116.00
C 638.13 113.54 634.62 106.48 638.75 102.75 C 642.89 99.03 648.46 101.77 651.00 97.00
C 660.59 96.29 654.76 114.87 665.00 113.00
C 663.42 106.21 660.68 99.90 659.00 93.00
C 657.43 92.61 654.78 93.94 654.00 92.00
C 643.28 92.58 632.32 93.93 622.00 96.00 C 611.69 98.08 601.29 99.01 591.01 101.01 C 580.72 103.01 570.55 103.69 560.07 105.07 C 549.60 106.46 538.63 108.13 528.00 109.00 C 517.37 109.87 504.13 108.57 494.01 107.99 C 483.89 107.42 474.12 103.19 465.02 100.98 C 455.93 98.76 448.80 93.21 440.69 90.31 C 432.59 87.40 425.30 80.02 418.75 76.25 C 412.20 72.48 405.71 60.06 398.00 62.00
C 394.99 63.26 395.80 70.48 396.00 73.00 Z"/>
</g>
<g fill="#584A41" fill-opacity="1.00" stroke="None">
<path d="
M 654.00 92.00 
C 654.78 93.94 657.43 92.61 659.00 93.00
C 660.68 99.90 663.42 106.21 665.00 113.00
C 654.76 114.87 660.59 96.29 651.00 97.00
C 648.46 101.77 642.89 99.03 638.75 102.75 C 634.62 106.48 638.13 113.54 634.00 116.00
C 637.17 115.54 641.41 115.35 644.00 115.00
C 638.89 113.94 640.30 104.90 647.03 104.03 C 653.75 103.16 652.44 113.04 655.00 114.00
C 658.92 113.62 663.06 114.00 667.00 114.00
C 667.74 113.84 668.74 113.11 670.00 113.00
C 666.36 108.16 663.68 93.91 672.97 94.03 C 682.26 94.15 677.10 112.00 686.00 111.00
C 685.16 104.63 681.92 99.05 680.00 93.00
C 681.45 93.87 683.21 92.14 684.00 92.00
C 679.14 92.00 673.04 91.04 669.00 91.00
C 664.16 91.43 659.11 91.72 654.00 92.00 Z"/>
</g>
<g fill="#AEA8A5" fill-opacity="1.00" stroke="None">
<path d="
M 684.00 92.00 
C 685.98 92.00 688.02 91.86 690.00 92.00
C 683.96 90.83 675.83 90.40 669.00 91.00
C 673.04 91.04 679.14 92.00 684.00 92.00 Z"/>
</g>
<g fill="#43322A" fill-opacity="1.00" stroke="None">
<path d="
M 644.00 115.00 
C 645.27 114.83 646.71 114.99 648.00 115.00
C 650.45 115.01 653.22 114.17 655.00 114.00
C 652.44 113.04 653.75 103.16 647.03 104.03 C 640.30 104.90 638.89 113.94 644.00 115.00 Z"/>
</g>
<g fill="#9B918D" fill-opacity="1.00" stroke="None">
<path d="
M 1003.00 105.00 
C 1020.22 105.00 1038.52 105.60 1055.00 104.00
C 1037.78 104.00 1019.48 103.41 1003.00 105.00 Z"/>
</g>
<g fill="#5E5049" fill-opacity="1.00" stroke="None">
<path d="
M 607.00 120.00 
C 610.47 119.55 614.37 119.52 618.00 119.00
C 618.30 118.78 618.80 118.02 619.00 118.00
C 617.67 118.00 616.33 118.00 615.00 118.00
C 614.52 113.43 622.13 114.48 621.00 110.00
C 614.52 107.95 613.92 117.08 608.00 114.00
C 607.89 116.04 608.42 118.33 607.00 120.00 Z"/>
</g>
<g fill="#958D89" fill-opacity="1.00" stroke="None">
<path d="
M 667.00 114.00 
C 674.00 114.00 681.00 114.00 688.00 114.00
C 682.76 113.49 676.02 112.48 670.00 113.00
C 668.74 113.11 667.74 113.84 667.00 114.00 Z"/>
</g>
<g fill="#ADA5A1" fill-opacity="1.00" stroke="None">
<path d="
M 634.00 116.00 
C 633.65 116.05 633.23 116.95 633.00 117.00
C 638.62 117.00 643.23 115.90 648.00 115.00
C 646.71 114.99 645.27 114.83 644.00 115.00
C 641.41 115.35 637.17 115.54 634.00 116.00 Z"/>
</g>
<g fill="#ABA3A0" fill-opacity="1.00" stroke="None">
<path d="
M 607.00 120.00 
C 605.31 120.22 603.18 120.79 602.00 121.00
C 606.32 120.74 614.75 121.39 618.00 119.00
C 614.37 119.52 610.47 119.55 607.00 120.00 Z"/>
</g>
<g fill="#89817A" fill-opacity="1.00" stroke="None">
<path d="
M 1039.00 124.00 
C 1044.73 124.00 1050.96 123.49 1056.00 123.00
C 1050.28 123.00 1044.04 123.51 1039.00 124.00 Z"/>
</g>
<g fill="#938B85" fill-opacity="1.00" stroke="None">
<path d="
M 992.00 125.00 
C 995.75 125.00 999.92 124.30 1003.00 124.00
C 999.25 124.00 995.08 124.70 992.00 125.00 Z"/>
</g>
<g fill="#988F8A" fill-opacity="1.00" stroke="None">
<path d="
M 1154.00 153.00 
C 1162.19 147.71 1169.49 140.62 1176.00 133.00
C 1169.07 139.92 1161.38 147.00 1154.00 153.00 Z"/>
</g>
<g fill="#45342B" fill-opacity="1.00" stroke="None">
<path d="
M 528.00 440.00 
C 528.30 443.08 529.00 447.25 529.00 451.00
C 532.68 520.02 552.58 592.06 606.00 639.00
C 592.84 640.35 579.49 641.00 566.00 641.00
C 562.92 641.30 558.75 642.00 555.00 642.00
C 538.75 642.00 522.84 644.51 507.00 646.00
C 501.51 647.16 495.06 647.64 489.00 648.00
C 442.74 650.76 398.21 662.33 352.00 666.00
C 339.38 668.13 324.86 668.24 312.00 667.00
C 300.92 666.61 287.22 664.30 277.23 660.77 C 267.24 657.24 258.93 652.85 250.25 647.75 C 241.56 642.66 233.66 637.38 226.08 630.92 C 218.50 624.45 212.61 618.76 205.92 611.08 C 199.23 603.40 193.78 596.77 188.31 587.69 C 182.83 578.62 179.25 571.89 174.93 561.07 C 170.61 550.26 170.43 538.99 169.00 526.00 C 167.57 513.01 181.75 512.02 193.00 510.00 C 204.25 507.98 215.46 504.87 227.00 504.00
C 222.43 515.51 211.70 522.12 211.00 536.00 C 210.30 549.87 220.50 558.90 233.00 562.00
C 237.96 562.61 244.02 562.40 249.00 562.00
C 258.42 561.25 268.93 558.87 277.98 556.98 C 287.02 555.08 295.77 552.10 304.31 549.31 C 312.84 546.52 321.85 544.12 329.93 540.93 C 338.00 537.73 347.03 534.73 354.78 531.78 C 362.52 528.82 371.36 524.46 378.31 521.31 C 385.25 518.15 395.50 513.37 400.92 509.92 C 406.34 506.46 420.25 501.01 418.97 494.03 C 417.70 487.05 400.20 495.11 394.22 497.22 C 388.25 499.34 377.31 504.30 370.23 507.23 C 363.14 510.16 353.95 514.08 346.22 517.22 C 338.50 520.36 329.52 523.10 321.22 526.22 C 312.93 529.35 304.62 531.88 296.07 535.07 C 287.53 538.26 278.27 539.46 269.22 542.22 C 260.18 544.99 249.05 546.41 239.01 545.99 C 228.97 545.57 222.82 535.12 225.07 526.07 C 227.33 517.03 232.81 512.91 239.92 506.92 C 247.02 500.93 253.84 499.79 262.78 495.78 C 271.71 491.76 277.10 492.66 286.30 485.30 C 295.50 477.95 280.21 475.05 271.02 478.02 C 261.84 481.00 252.62 482.10 243.22 484.22 C 233.82 486.34 224.62 488.56 215.02 490.02 C 205.42 491.49 196.50 494.18 187.00 496.00 C 177.50 497.82 167.60 499.29 158.00 501.00 C 148.41 502.72 138.66 504.44 129.00 506.00 C 119.34 507.56 108.74 509.09 99.00 510.00
C 95.43 510.75 91.21 511.00 87.00 511.00
C 79.97 511.00 72.28 510.61 66.00 510.00
C 51.55 510.19 35.86 508.19 27.31 495.70 C 18.75 483.20 24.13 468.97 34.75 459.75 C 45.37 450.53 55.68 445.72 68.78 440.78 C 81.88 435.83 95.53 432.79 109.78 429.78 C 124.03 426.77 139.05 424.49 153.99 421.99 C 168.93 419.50 185.54 417.75 201.00 416.00 C 216.45 414.25 232.31 412.56 248.00 411.00 C 263.69 409.44 280.17 408.37 296.00 407.00 C 311.83 405.63 330.30 405.23 345.98 403.98 C 361.65 402.73 380.16 402.66 395.00 401.00 C 409.84 399.34 433.49 405.12 431.00 385.00
C 430.16 384.68 428.80 385.40 428.00 385.00
C 419.14 382.12 404.40 385.00 395.00 385.00
C 390.67 385.00 386.33 385.00 382.00 385.00
C 378.92 385.30 374.75 386.00 371.00 386.00
C 324.07 386.72 276.94 394.05 231.00 394.00
C 305.43 352.68 385.09 318.32 451.00 262.00
C 454.76 258.24 459.66 253.98 463.00 250.00
C 464.03 246.83 467.49 244.67 467.00 241.00
C 445.11 250.78 425.35 265.45 405.23 279.23 C 385.11 293.01 365.50 304.90 344.25 317.25 C 322.99 329.59 301.71 341.18 279.23 352.23 C 256.75 363.28 237.33 374.26 214.70 386.70 C 192.06 399.14 161.81 403.47 136.00 408.00 C 110.20 412.53 81.93 418.55 58.07 429.07 C 34.21 439.60 11.73 450.08 9.00 480.00 C 6.27 509.92 34.36 525.55 61.00 527.00
C 67.62 527.36 74.37 527.00 81.00 527.00
C 106.36 527.41 129.94 520.72 155.00 520.00
C 154.13 531.99 155.72 543.57 157.00 555.00
C 157.71 557.86 159.15 561.71 160.00 565.00
C 169.46 601.49 192.96 625.46 222.25 650.75 C 251.54 676.04 295.77 686.00 335.00 686.00
C 337.95 685.71 342.46 685.33 346.00 685.00
C 419.88 678.07 492.50 659.00 568.00 659.00
C 596.21 656.27 626.39 657.57 655.00 657.00
C 708.08 655.94 742.57 615.59 770.23 573.23 C 797.89 530.87 809.60 472.63 819.00 423.00
C 818.74 422.07 819.20 420.94 819.00 420.00
C 796.22 423.74 801.05 384.19 822.00 396.00
C 821.32 394.24 823.10 391.97 823.00 395.00
C 829.54 354.77 828.04 300.13 820.93 261.07 C 813.81 222.02 801.01 192.60 773.75 164.25 C 746.50 135.90 699.38 130.49 665.08 145.08 C 630.78 159.66 608.12 179.90 587.25 211.25 C 566.38 242.60 554.07 273.54 542.98 310.98 C 531.88 348.41 528.00 398.51 528.00 440.00
M 777.00 336.00 
C 777.49 341.09 777.72 346.93 777.00 352.00
C 776.59 362.68 774.59 374.52 765.75 381.75 C 756.91 388.99 749.95 397.96 758.00 408.00
C 769.43 412.78 779.80 419.82 775.00 433.00
C 771.34 464.73 759.35 495.68 743.23 523.23 C 727.11 550.78 696.23 569.84 664.99 562.01 C 633.75 554.18 616.15 526.92 606.00 498.00
C 604.54 496.63 603.73 498.14 602.00 498.00
C 599.44 487.38 592.74 478.13 592.00 467.00
C 595.07 466.18 595.05 470.30 597.00 467.00
C 594.87 458.80 592.66 450.60 592.00 442.00
C 600.25 448.08 604.56 465.28 618.00 467.00
C 622.13 465.66 616.05 458.98 622.00 459.00
C 622.73 460.99 622.54 464.14 625.00 465.00
C 626.27 462.59 631.41 462.16 631.00 466.00
C 626.96 467.84 625.16 468.51 630.00 470.00
C 638.87 470.34 645.29 468.47 653.00 465.00
C 656.33 461.54 653.94 456.37 656.75 452.75 C 659.57 449.14 663.24 447.78 667.69 450.31 C 672.15 452.83 673.47 445.47 677.00 444.00
C 682.17 429.59 689.38 418.14 690.00 402.00
C 690.19 397.03 690.10 391.97 690.00 387.00
C 689.51 362.56 677.40 336.51 652.33 329.67 C 627.26 322.83 603.28 340.29 594.00 363.00
C 596.78 325.35 614.02 287.36 634.75 255.75 C 655.49 224.14 701.65 200.77 733.25 228.75 C 764.84 256.73 773.26 296.59 777.00 336.00
M 644.00 344.00 
C 659.71 347.66 672.08 358.99 673.00 376.00
C 674.59 384.41 675.23 393.39 674.00 402.00
C 673.22 422.35 664.62 448.05 641.33 454.33 C 618.04 460.60 599.44 433.90 599.00 412.00
C 598.31 406.27 598.32 399.66 599.00 394.00
C 599.42 373.24 610.66 349.53 632.00 344.00
C 636.03 342.95 640.04 343.08 644.00 344.00
M 794.00 400.00 
C 799.50 406.90 802.18 416.20 804.98 426.02 C 807.77 435.85 788.40 443.92 784.00 433.00
C 790.54 433.34 804.49 435.00 800.00 423.00
C 795.72 426.35 789.07 430.54 783.78 426.22 C 778.48 421.91 776.05 415.29 778.78 408.78 C 781.51 402.26 792.16 406.51 794.00 400.00
M 578.00 510.00 
C 584.30 510.90 595.75 511.04 593.00 500.00
C 588.38 502.59 582.31 507.54 576.78 503.22 C 571.24 498.90 570.01 493.75 571.78 486.78 C 573.55 479.80 583.38 482.80 586.00 478.00
C 593.45 482.23 594.45 493.21 597.93 502.07 C 601.40 510.94 582.29 520.13 578.00 510.00
M 549.00 518.00 
C 547.42 510.27 542.83 503.12 542.00 495.00
C 547.96 491.88 560.43 490.03 551.10 497.10 C 541.77 504.17 561.15 514.71 549.00 518.00 Z"/>
</g>
<g fill="#8F8680" fill-opacity="1.00" stroke="None">
<path d="
M 784.00 158.00 
C 780.38 153.76 776.29 149.66 772.00 146.00
C 775.87 149.87 780.08 154.08 784.00 158.00 Z"/>
</g>
<g fill="#5D4D45" fill-opacity="1.00" stroke="None">
<path d="
M 537.00 159.00 
C 533.88 158.79 531.18 158.30 528.00 158.00
C 529.31 158.52 531.06 159.63 533.00 159.00
C 532.88 168.78 516.86 166.89 519.00 157.00
C 520.00 157.00 521.00 157.00 522.00 157.00
C 520.03 156.62 516.54 155.54 514.00 155.00
C 517.02 158.95 515.91 168.85 524.00 169.00 C 532.09 169.15 536.01 166.69 537.00 159.00 Z"/>
</g>
<g fill="#44342C" fill-opacity="1.00" stroke="None">
<path d="
M 528.00 158.00 
C 527.65 157.86 527.26 157.12 527.00 157.00
C 525.43 156.99 523.54 157.29 522.00 157.00
C 521.00 157.00 520.00 157.00 519.00 157.00
C 516.86 166.89 532.88 168.78 533.00 159.00
C 531.06 159.63 529.31 158.52 528.00 158.00 Z"/>
</g>
<g fill="#89807A" fill-opacity="1.00" stroke="None">
<path d="
M 528.00 158.00 
C 531.18 158.30 533.88 158.79 537.00 159.00
C 544.33 159.50 552.39 158.64 559.00 158.00
C 548.20 158.00 537.48 157.07 527.00 157.00
C 527.26 157.12 527.65 157.86 528.00 158.00 Z"/>
</g>
<g fill="#EDEDED" fill-opacity="1.00" stroke="None">
<path d="
M 690.00 387.00 
C 690.58 391.83 690.68 397.21 690.00 402.00
C 689.38 418.14 682.17 429.59 677.00 444.00
C 676.84 444.44 677.00 445.00 677.00 445.00
C 672.17 452.77 665.00 461.21 656.00 464.00
C 654.93 464.33 654.07 464.52 653.00 465.00
C 645.29 468.47 638.87 470.34 630.00 470.00
C 625.20 469.82 622.02 468.39 618.00 467.00
C 604.56 465.28 600.25 448.08 592.00 442.00
C 592.66 450.60 594.87 458.80 597.00 467.00
C 599.69 477.36 602.45 487.88 606.00 498.00
C 616.15 526.92 633.75 554.18 664.99 562.01 C 696.23 569.84 727.11 550.78 743.23 523.23 C 759.35 495.68 771.34 464.73 775.00 433.00
C 775.15 431.68 774.88 430.32 775.00 429.00
C 774.28 420.77 761.60 416.35 758.00 409.00
C 757.80 408.60 758.00 408.00 758.00 408.00
C 749.95 397.96 756.91 388.99 765.75 381.75 C 774.59 374.52 776.59 362.68 777.00 352.00
C 777.20 346.68 777.00 341.32 777.00 336.00
C 773.26 296.59 764.84 256.73 733.25 228.75 C 701.65 200.77 655.49 224.14 634.75 255.75 C 614.02 287.36 596.78 325.35 594.00 363.00
C 603.28 340.29 627.26 322.83 652.33 329.67 C 677.40 336.51 689.51 362.56 690.00 387.00 Z"/>
</g>
<g fill="#EEEDED" fill-opacity="1.00" stroke="None">
<path d="
M 936.00 340.00 
C 936.21 339.96 936.70 339.22 937.00 339.00
C 941.08 336.00 949.18 338.27 953.00 340.00
C 970.43 345.74 981.93 359.38 985.67 377.33 C 989.41 395.28 989.07 420.85 981.77 437.77 C 974.47 454.69 964.13 466.01 946.07 471.07 C 928.01 476.14 910.75 463.89 901.00 449.00
C 903.53 463.43 908.54 479.66 914.08 492.92 C 919.61 506.19 925.93 517.04 935.23 527.77 C 944.53 538.50 953.10 547.34 967.00 552.00 C 980.90 556.66 1000.60 552.39 1012.77 544.77 C 1024.94 537.15 1032.38 528.79 1040.75 516.75 C 1049.11 504.70 1052.81 493.03 1058.68 478.68 C 1064.54 464.33 1064.29 448.68 1070.02 433.02 C 1075.75 417.37 1060.01 411.62 1050.77 400.23 C 1041.53 388.84 1064.49 377.32 1069.00 368.00
C 1072.64 356.94 1070.44 344.60 1070.00 333.00
C 1065.98 296.88 1056.47 258.34 1024.75 235.25 C 993.02 212.17 948.93 228.92 930.92 261.92 C 912.91 294.91 898.14 332.97 899.00 371.00
C 906.17 356.92 918.92 340.93 936.00 340.00 Z"/>
</g>
<g fill="#8D8480" fill-opacity="1.00" stroke="None">
<path d="
M 451.00 262.00 
C 455.12 258.48 459.79 254.50 463.00 250.00
C 459.66 253.98 454.76 258.24 451.00 262.00 Z"/>
</g>
<g fill="#97928E" fill-opacity="1.00" stroke="None">
<path d="
M 1069.00 368.00 
C 1074.10 357.45 1071.87 344.05 1070.00 333.00
C 1070.44 344.60 1072.64 356.94 1069.00 368.00 Z"/>
</g>
<g fill="#978D8A" fill-opacity="1.00" stroke="None">
<path d="
M 777.00 352.00 
C 777.72 346.93 777.49 341.09 777.00 336.00
C 777.00 341.32 777.20 346.68 777.00 352.00 Z"/>
</g>
<g fill="#C6C0BB" fill-opacity="1.00" stroke="None">
<path d="
M 937.00 339.00 
C 940.80 338.45 944.99 339.68 948.00 340.00
C 949.59 340.00 951.43 339.75 953.00 340.00
C 949.18 338.27 941.08 336.00 937.00 339.00 Z"/>
</g>
<g fill="#786E69" fill-opacity="1.00" stroke="None">
<path d="
M 936.00 340.00 
C 939.97 339.78 944.02 340.00 948.00 340.00
C 944.99 339.68 940.80 338.45 937.00 339.00
C 936.70 339.22 936.21 339.96 936.00 340.00 Z"/>
</g>
<g fill="#948E89" fill-opacity="1.00" stroke="None">
<path d="
M 1117.00 351.00 
C 1117.00 347.21 1116.38 343.13 1116.00 340.00
C 1116.07 343.72 1116.70 347.94 1117.00 351.00 Z"/>
</g>
<g fill="#827772" fill-opacity="1.00" stroke="None">
<path d="
M 632.00 344.00 
C 635.62 343.52 640.37 343.59 644.00 344.00
C 640.04 343.08 636.03 342.95 632.00 344.00 Z"/>
</g>
<g fill="#EDECEC" fill-opacity="1.00" stroke="None">
<path d="
M 599.00 394.00 
C 598.88 399.98 598.88 406.02 599.00 412.00
C 599.44 433.90 618.04 460.60 641.33 454.33 C 664.62 448.05 673.22 422.35 674.00 402.00
C 674.34 393.09 673.47 384.69 673.00 376.00
C 672.08 358.99 659.71 347.66 644.00 344.00
C 640.37 343.59 635.62 343.52 632.00 344.00
C 610.66 349.53 599.42 373.24 599.00 394.00 Z"/>
</g>
<g fill="#EDECEC" fill-opacity="1.00" stroke="None">
<path d="
M 948.00 354.00 
C 923.01 347.81 904.93 378.13 902.99 397.99 C 901.06 417.86 908.38 450.00 930.32 457.68 C 952.26 465.36 970.57 432.88 973.67 414.67 C 976.77 396.46 971.74 359.88 948.00 354.00 Z"/>
</g>
<g fill="#938985" fill-opacity="1.00" stroke="None">
<path d="
M 674.00 402.00 
C 675.23 393.39 674.59 384.41 673.00 376.00
C 673.47 384.69 674.34 393.09 674.00 402.00 Z"/>
</g>
<g fill="#5A4941" fill-opacity="1.00" stroke="None">
<path d="
M 863.00 382.00 
C 860.74 370.37 844.14 379.91 848.08 388.92 C 852.02 397.93 864.70 397.90 865.00 388.00
C 861.44 391.56 854.68 396.15 851.78 388.22 C 848.88 380.29 857.77 379.07 863.00 382.00 Z"/>
</g>
<g fill="#918784" fill-opacity="1.00" stroke="None">
<path d="
M 1291.00 380.00 
C 1295.08 380.00 1299.66 379.32 1303.00 379.00
C 1298.92 379.00 1294.40 379.67 1291.00 380.00 Z"/>
</g>
<g fill="#47362E" fill-opacity="1.00" stroke="None">
<path d="
M 1291.00 380.00 
C 1283.33 380.00 1275.67 380.00 1268.00 380.00
C 1264.93 380.30 1260.75 381.00 1257.00 381.00
C 1234.25 381.00 1206.49 380.74 1185.00 387.00
C 1181.63 388.26 1176.94 392.56 1179.00 397.00
C 1181.88 401.05 1189.25 398.53 1194.00 399.00 C 1198.75 399.47 1205.11 399.00 1210.00 399.00
C 1215.02 398.51 1221.33 398.22 1227.00 398.00
C 1234.96 397.70 1242.78 397.00 1251.00 397.00
C 1254.73 396.64 1259.59 396.00 1264.00 396.00
C 1267.08 395.70 1271.25 395.00 1275.00 395.00
C 1282.67 395.00 1290.33 395.00 1298.00 395.00
C 1307.67 395.00 1317.33 395.00 1327.00 395.00
C 1333.19 395.00 1338.65 396.10 1344.00 397.00
C 1355.83 397.45 1367.39 406.38 1358.75 416.75 C 1350.11 427.13 1343.02 427.12 1332.22 431.22 C 1321.42 435.32 1310.48 437.89 1299.00 439.00
C 1295.74 439.62 1291.74 440.43 1288.00 441.00
C 1278.15 443.31 1267.18 442.31 1258.22 444.22 C 1249.26 446.13 1236.44 444.50 1228.07 447.07 C 1219.71 449.64 1206.42 445.90 1200.25 452.25 C 1194.08 458.60 1212.75 460.06 1218.93 462.07 C 1225.11 464.08 1238.20 462.96 1244.75 469.25 C 1251.31 475.54 1245.31 484.26 1237.08 488.08 C 1228.85 491.91 1221.66 494.13 1212.07 496.07 C 1202.49 498.02 1193.52 498.00 1183.07 500.07 C 1172.62 502.15 1165.86 501.35 1154.03 504.03 C 1142.19 506.70 1151.60 516.81 1161.78 515.22 C 1171.96 513.63 1183.27 517.52 1192.98 514.98 C 1202.68 512.43 1212.01 512.48 1220.98 509.98 C 1229.94 507.47 1237.15 505.38 1244.77 500.77 C 1252.39 496.16 1257.45 492.93 1261.69 484.69 C 1265.94 476.46 1259.35 466.32 1259.00 458.00
C 1278.56 457.84 1301.31 454.79 1319.33 450.33 C 1337.35 445.87 1351.23 441.40 1365.25 429.25 C 1379.26 417.10 1380.70 395.14 1362.70 386.31 C 1344.69 377.47 1323.49 379.00 1303.00 379.00
C 1299.66 379.32 1295.08 380.00 1291.00 380.00 Z"/>
</g>
<g fill="#9D9390" fill-opacity="1.00" stroke="None">
<path d="
M 1257.00 381.00 
C 1260.75 381.00 1264.93 380.30 1268.00 380.00
C 1264.25 380.00 1260.08 380.70 1257.00 381.00 Z"/>
</g>
<g fill="#9B8F85" fill-opacity="1.00" stroke="None">
<path d="
M 395.00 385.00 
C 404.40 385.00 419.14 382.12 428.00 385.00
C 420.13 381.07 403.35 384.19 395.00 385.00 Z"/>
</g>
<g fill="#948985" fill-opacity="1.00" stroke="None">
<path d="
M 371.00 386.00 
C 374.75 386.00 378.92 385.30 382.00 385.00
C 378.25 385.00 374.08 385.70 371.00 386.00 Z"/>
</g>
<g fill="#948C86" fill-opacity="1.00" stroke="None">
<path d="
M 690.00 402.00 
C 690.68 397.21 690.58 391.83 690.00 387.00
C 690.10 391.97 690.19 397.03 690.00 402.00 Z"/>
</g>
<g fill="#8D8581" fill-opacity="1.00" stroke="None">
<path d="
M 1179.00 397.00 
C 1176.94 392.56 1181.63 388.26 1185.00 387.00
C 1180.63 388.27 1175.51 392.09 1179.00 397.00 Z"/>
</g>
<g fill="#5C4C44" fill-opacity="1.00" stroke="None">
<path d="
M 819.00 423.00 
C 819.48 420.48 820.76 417.01 821.00 414.00
C 817.04 421.66 807.17 411.31 808.00 405.00 C 808.83 398.69 819.97 394.14 822.00 403.00
C 822.47 400.26 822.55 397.77 823.00 395.00
C 823.10 391.97 821.32 394.24 822.00 396.00
C 801.05 384.19 796.22 423.74 819.00 420.00
C 819.20 420.94 818.74 422.07 819.00 423.00 Z"/>
</g>
<g fill="#8F867E" fill-opacity="1.00" stroke="None">
<path d="
M 599.00 412.00 
C 598.88 406.02 598.88 399.98 599.00 394.00
C 598.32 399.66 598.31 406.27 599.00 412.00 Z"/>
</g>
<g fill="#5E564F" fill-opacity="1.00" stroke="None">
<path d="
M 1264.00 396.00 
C 1264.50 396.00 1265.50 396.00 1266.00 396.00
C 1269.00 396.00 1272.00 396.00 1275.00 396.00
C 1274.96 396.00 1275.00 395.00 1275.00 395.00
C 1271.25 395.00 1267.08 395.70 1264.00 396.00 Z"/>
</g>
<g fill="#89817A" fill-opacity="1.00" stroke="None">
<path d="
M 1275.00 396.00 
C 1280.33 396.00 1285.67 396.11 1291.00 396.00
C 1293.41 395.95 1296.25 395.17 1298.00 395.00
C 1290.33 395.00 1282.67 395.00 1275.00 395.00
C 1275.00 395.00 1274.96 396.00 1275.00 396.00 Z"/>
</g>
<g fill="#9D9590" fill-opacity="1.00" stroke="None">
<path d="
M 1344.00 397.00 
C 1338.65 396.10 1333.19 395.00 1327.00 395.00
C 1332.16 395.50 1338.18 396.78 1344.00 397.00 Z"/>
</g>
<g fill="#928782" fill-opacity="1.00" stroke="None">
<path d="
M 1251.00 397.00 
C 1256.00 397.00 1261.00 397.00 1266.00 397.00
C 1265.96 397.00 1266.00 396.00 1266.00 396.00
C 1265.50 396.00 1264.50 396.00 1264.00 396.00
C 1259.59 396.00 1254.73 396.64 1251.00 397.00 Z"/>
</g>
<g fill="#C7C1BD" fill-opacity="1.00" stroke="None">
<path d="
M 1266.00 397.00 
C 1274.36 397.00 1283.33 396.93 1291.00 396.00
C 1285.67 396.11 1280.33 396.00 1275.00 396.00
C 1272.00 396.00 1269.00 396.00 1266.00 396.00
C 1266.00 396.00 1265.96 397.00 1266.00 397.00 Z"/>
</g>
<g fill="#43322A" fill-opacity="1.00" stroke="None">
<path d="
M 821.00 414.00 
C 821.31 410.13 821.37 406.67 822.00 403.00
C 819.97 394.14 808.83 398.69 808.00 405.00 C 807.17 411.31 817.04 421.66 821.00 414.00 Z"/>
</g>
<g fill="#A09793" fill-opacity="1.00" stroke="None">
<path d="
M 1210.00 399.00 
C 1215.77 399.00 1221.90 398.73 1227.00 398.00
C 1221.33 398.22 1215.02 398.51 1210.00 399.00 Z"/>
</g>
<g fill="#5A4941" fill-opacity="1.00" stroke="None">
<path d="
M 794.00 400.00 
C 792.16 406.51 781.51 402.26 778.78 408.78 C 776.05 415.29 778.48 421.91 783.78 426.22 C 789.07 430.54 795.72 426.35 800.00 423.00
C 804.49 435.00 790.54 433.34 784.00 433.00
C 788.40 443.92 807.77 435.85 804.98 426.02 C 802.18 416.20 799.50 406.90 794.00 400.00
M 791.00 408.00 
C 800.16 410.13 796.34 427.17 787.33 423.67 C 778.32 420.17 782.10 405.93 791.00 408.00 Z"/>
</g>
<g fill="#988D8A" fill-opacity="1.00" stroke="None">
<path d="
M 488.00 440.00 
C 488.00 429.00 488.00 418.00 488.00 407.00
C 487.00 417.30 487.00 429.63 488.00 440.00 Z"/>
</g>
<g fill="#594D45" fill-opacity="1.00" stroke="None">
<path d="
M 758.00 409.00 
C 763.61 412.92 775.51 423.41 775.00 429.00
C 774.88 430.32 775.15 431.68 775.00 433.00
C 779.80 419.82 769.43 412.78 758.00 408.00
C 758.00 408.00 757.80 408.60 758.00 409.00 Z"/>
</g>
<g fill="#423128" fill-opacity="1.00" stroke="None">
<path d="
M 791.00 408.00 
C 782.10 405.93 778.32 420.17 787.33 423.67 C 796.34 427.17 800.16 410.13 791.00 408.00 Z"/>
</g>
<g fill="#978F8C" fill-opacity="1.00" stroke="None">
<path d="
M 775.00 429.00 
C 775.51 423.41 763.61 412.92 758.00 409.00
C 761.60 416.35 774.28 420.77 775.00 429.00 Z"/>
</g>
<g fill="#A19994" fill-opacity="1.00" stroke="None">
<path d="
M 1288.00 441.00 
C 1291.74 440.43 1295.74 439.62 1299.00 439.00
C 1294.94 439.39 1291.48 440.10 1288.00 441.00 Z"/>
</g>
<g fill="#A49790" fill-opacity="1.00" stroke="None">
<path d="
M 529.00 451.00 
C 529.00 447.25 528.30 443.08 528.00 440.00
C 528.00 443.75 528.70 447.92 529.00 451.00 Z"/>
</g>
<g fill="#63564E" fill-opacity="1.00" stroke="None">
<path d="
M 653.00 465.00 
C 654.07 464.52 654.93 464.33 656.00 464.00
C 664.19 459.69 669.39 449.94 677.00 445.00
C 677.00 445.00 676.84 444.44 677.00 444.00
C 673.47 445.47 672.15 452.83 667.69 450.31 C 663.24 447.78 659.57 449.14 656.75 452.75 C 653.94 456.37 656.33 461.54 653.00 465.00
M 664.00 451.00 
C 669.58 452.30 663.99 460.11 659.92 459.92 C 655.85 459.72 657.64 449.52 664.00 451.00 Z"/>
</g>
<g fill="#BFB9B5" fill-opacity="1.00" stroke="None">
<path d="
M 656.00 464.00 
C 665.00 461.21 672.17 452.77 677.00 445.00
C 669.39 449.94 664.19 459.69 656.00 464.00 Z"/>
</g>
<g fill="#43322B" fill-opacity="1.00" stroke="None">
<path d="
M 664.00 451.00 
C 657.64 449.52 655.85 459.72 659.92 459.92 C 663.99 460.11 669.58 452.30 664.00 451.00 Z"/>
</g>
<g fill="#5D4F47" fill-opacity="1.00" stroke="None">
<path d="
M 618.00 467.00 
C 622.02 468.39 625.20 469.82 630.00 470.00
C 625.16 468.51 626.96 467.84 631.00 466.00
C 631.41 462.16 626.27 462.59 625.00 465.00
C 622.54 464.14 622.73 460.99 622.00 459.00
C 616.05 458.98 622.13 465.66 618.00 467.00 Z"/>
</g>
<g fill="#5F524C" fill-opacity="1.00" stroke="None">
<path d="
M 606.00 498.00 
C 602.45 487.88 599.69 477.36 597.00 467.00
C 595.05 470.30 595.07 466.18 592.00 467.00
C 592.74 478.13 599.44 487.38 602.00 498.00
C 603.73 498.14 604.54 496.63 606.00 498.00 Z"/>
</g>
<g fill="#5B4A42" fill-opacity="1.00" stroke="None">
<path d="
M 578.00 510.00 
C 582.29 520.13 601.40 510.94 597.93 502.07 C 594.45 493.21 593.45 482.23 586.00 478.00
C 583.38 482.80 573.55 479.80 571.78 486.78 C 570.01 493.75 571.24 498.90 576.78 503.22 C 582.31 507.54 588.38 502.59 593.00 500.00
C 595.75 511.04 584.30 510.90 578.00 510.00
M 583.00 484.00 
C 592.28 485.04 592.10 501.94 582.00 501.00 C 571.89 500.06 572.72 482.85 583.00 484.00 Z"/>
</g>
<g fill="#43322A" fill-opacity="1.00" stroke="None">
<path d="
M 583.00 484.00 
C 572.72 482.85 571.89 500.06 582.00 501.00 C 592.10 501.94 592.28 485.04 583.00 484.00 Z"/>
</g>
<g fill="#594940" fill-opacity="1.00" stroke="None">
<path d="
M 549.00 518.00 
C 561.15 514.71 541.77 504.17 551.10 497.10 C 560.43 490.03 547.96 491.88 542.00 495.00
C 542.83 503.12 547.42 510.27 549.00 518.00 Z"/>
</g>
<g fill="#978D8A" fill-opacity="1.00" stroke="None">
<path d="
M 87.00 511.00 
C 86.96 511.00 87.00 510.00 87.00 510.00
C 80.00 510.00 73.00 510.00 66.00 510.00
C 72.28 510.61 79.97 511.00 87.00 511.00 Z"/>
</g>
<g fill="#695E59" fill-opacity="1.00" stroke="None">
<path d="
M 87.00 511.00 
C 91.21 511.00 95.43 510.75 99.00 510.00
C 95.08 510.37 90.94 510.00 87.00 510.00
C 87.00 510.00 86.96 511.00 87.00 511.00 Z"/>
</g>
<g fill="#5D4F47" fill-opacity="1.00" stroke="None">
<path d="
M 480.00 521.00 
C 482.47 517.06 490.17 522.75 491.30 525.70 C 492.44 528.65 492.60 540.08 486.00 538.00
C 486.67 539.69 487.31 541.47 488.00 543.00
C 492.69 539.24 497.76 533.80 495.32 526.68 C 492.88 519.56 488.07 515.27 480.00 517.00
C 480.14 514.24 477.89 512.09 477.00 510.00
C 477.90 513.82 478.82 517.32 480.00 521.00 Z"/>
</g>
<g fill="#483730" fill-opacity="1.00" stroke="None">
<path d="
M 480.00 521.00 
C 481.86 526.79 483.85 532.57 486.00 538.00
C 492.60 540.08 492.44 528.65 491.30 525.70 C 490.17 522.75 482.47 517.06 480.00 521.00 Z"/>
</g>
<g fill="#A0908A" fill-opacity="1.00" stroke="None">
<path d="
M 81.00 527.00 
C 74.37 527.00 67.62 527.36 61.00 527.00
C 67.30 528.02 74.68 527.61 81.00 527.00 Z"/>
</g>
<g fill="#9F9995" fill-opacity="1.00" stroke="None">
<path d="
M 160.00 565.00 
C 159.15 561.71 157.71 557.86 157.00 555.00
C 157.44 558.93 158.69 561.70 160.00 565.00 Z"/>
</g>
<g fill="#9C928E" fill-opacity="1.00" stroke="None">
<path d="
M 249.00 562.00 
C 244.02 562.40 237.96 562.61 233.00 562.00
C 238.02 563.24 243.93 562.98 249.00 562.00 Z"/>
</g>
<g fill="#978D88" fill-opacity="1.00" stroke="None">
<path d="
M 906.00 616.00 
C 906.27 617.47 908.00 616.89 909.00 617.00
C 907.08 609.57 899.45 604.45 894.00 599.00
C 896.37 601.78 910.17 615.12 906.00 616.00 Z"/>
</g>
<g fill="#938984" fill-opacity="1.00" stroke="None">
<path d="
M 555.00 642.00 
C 558.75 642.00 562.92 641.30 566.00 641.00
C 562.25 641.00 558.07 641.70 555.00 642.00 Z"/>
</g>
<g fill="#817872" fill-opacity="1.00" stroke="None">
<path d="
M 489.00 648.00 
C 495.06 647.64 501.51 647.16 507.00 646.00
C 500.80 646.58 494.55 647.21 489.00 648.00 Z"/>
</g>
<g fill="#B6AEAB" fill-opacity="1.00" stroke="None">
<path d="
M 568.00 659.00 
C 582.63 659.00 598.50 659.04 613.00 659.00 C 627.50 658.96 642.09 660.00 655.00 657.00
C 626.39 657.57 596.21 656.27 568.00 659.00 Z"/>
</g>
<g fill="#857A76" fill-opacity="1.00" stroke="None">
<path d="
M 312.00 667.00 
C 324.86 668.24 339.38 668.13 352.00 666.00
C 338.90 667.04 325.44 667.00 312.00 667.00 Z"/>
</g>
<g fill="#A39A97" fill-opacity="1.00" stroke="None">
<path d="
M 335.00 686.00 
C 338.89 686.00 342.74 685.69 346.00 685.00
C 342.46 685.33 337.95 685.71 335.00 686.00 Z"/>
</g>
</svg>